M48
;GenerationSoftware,Autodesk,EAGLE,9.6.2*%
;CreationDate,2021-10-05T08:37:52Z*%
FMAT,2
ICI,OFF
METRIC,TZ,000.000
T5C0.350
T4C0.500
T3C0.813
T2C0.900
T1C2.800
%
G90
M71
T1
X4000Y4000
X4000Y60000
X106000Y60000
X106000Y4000
T2
X86200Y2000
X89200Y2000
X70600Y2000
X73600Y2000
T3
X72380Y17000
X74920Y17000
X77460Y17000
X80000Y17000
X82540Y17000
X85080Y17000
X87620Y17000
X90160Y17000
X92700Y17000
X95240Y17000
X97780Y17000
X62220Y44940
X64760Y44940
X67300Y44940
X69840Y44940
X72380Y44940
X62220Y17000
X77460Y44940
X80000Y44940
X82540Y44940
X85080Y44940
X87620Y44940
X90160Y44940
X92700Y44940
X95240Y44940
X97780Y44940
X107300Y46610
X107300Y49150
X107300Y51690
X74920Y44940
X64760Y17000
X67300Y17000
X69840Y17000
T4
X91715Y59150
X92965Y59150
X94215Y59150
X95465Y59150
X90465Y59150
X89215Y59150
X87965Y59150
X86715Y59150
T5
X60200Y7300
X61600Y7300
X63100Y7300
X64600Y7300
X36900Y49300
X38700Y49300
X40700Y49300
X42400Y49300
X43800Y49300
X45200Y49300
X46600Y49300
X48100Y49300
X36900Y47600
X38700Y47600
X40700Y47600
X42400Y47600
X43800Y47600
X45200Y47600
X46600Y47600
X48100Y47600
X37000Y46100
X38800Y46100
X40700Y46100
X42500Y46100
X43800Y46100
X45200Y46100
X46700Y46100
X48100Y46100
X17700Y27300
X17700Y26100
X74600Y50500
X75900Y50500
X77100Y50500
X78300Y50500
X79500Y50500
X80800Y50500
X82100Y50500
X74700Y49000
X76000Y49000
X77200Y49000
X78500Y49000
X79700Y49000
X80900Y49000
X82200Y49000
X28300Y2900
X29600Y4400
X29600Y2800
X29600Y1200
X8600Y5900
X39900Y2800
X15000Y11500
X16200Y11500
X19500Y10900
X19500Y9600
X21200Y38800
X20600Y34900
X32800Y38500
X62100Y36900
X11900Y27200
X5300Y26200
X83900Y35200
X68100Y37400
X16000Y27400
X15000Y26700
X13700Y9000
X13700Y9900
X104900Y20800
X104900Y21600
X97500Y7000
X98400Y7000
X88400Y53000
X66000Y41300
X27200Y21600
X38800Y13800
X19400Y12400
X39100Y11300
X13800Y5500
X18900Y8200
X35700Y27400
X41800Y24800
X31200Y22000
X32500Y27300
X34200Y33400
X33700Y24700
X42700Y26200
X8100Y15100
X12000Y17700
X5500Y11600
X12300Y7500
X17700Y1800
X75500Y37600
X72100Y38300
X19500Y6500
X18000Y6800
X18900Y14500
X12200Y21000
X64600Y8500
X63500Y8500
X62400Y8500
X61300Y8500
X60200Y8500
X100100Y2800
X98700Y2700
X98600Y4200
X100100Y4200
X40700Y20000
X42300Y21600
X42200Y20000
X42800Y18000
X44300Y17100
X40100Y24700
X38900Y24700
X37500Y24700
X96100Y29000
X94300Y28900
X92100Y28900
X97200Y30400
X95800Y30100
X93600Y30700
X92100Y30600
X77000Y21800
X79200Y21800
X82000Y21800
X85000Y21800
X87300Y21700
X89400Y21600
X91600Y21600
X93900Y21500
X93800Y23500
X91500Y23500
X89300Y23500
X87200Y23600
X84800Y23700
X81800Y23700
X79100Y23700
X76800Y23700
X39900Y1000
X28400Y4400
X28300Y1200
X38400Y4300
X38400Y2800
X38400Y1000
X18100Y4700
X9000Y2900
X39900Y4400
M30