G04 EAGLE Gerber RS-274X export*
G75*
%MOMM*%
%FSLAX34Y34*%
%LPD*%
%INSilkscreen Bottom*%
%IPPOS*%
%AMOC8*
5,1,8,0,0,1.08239X$1,22.5*%
G01*
%ADD10C,0.250000*%
%ADD11C,0.150000*%
%ADD12C,0.076200*%
%ADD13C,0.101600*%


D10*
X896800Y295700D02*
X896802Y295770D01*
X896808Y295840D01*
X896818Y295909D01*
X896831Y295978D01*
X896849Y296046D01*
X896870Y296113D01*
X896895Y296178D01*
X896924Y296242D01*
X896956Y296305D01*
X896992Y296365D01*
X897031Y296423D01*
X897073Y296479D01*
X897118Y296533D01*
X897166Y296584D01*
X897217Y296632D01*
X897271Y296677D01*
X897327Y296719D01*
X897385Y296758D01*
X897445Y296794D01*
X897508Y296826D01*
X897572Y296855D01*
X897637Y296880D01*
X897704Y296901D01*
X897772Y296919D01*
X897841Y296932D01*
X897910Y296942D01*
X897980Y296948D01*
X898050Y296950D01*
X898120Y296948D01*
X898190Y296942D01*
X898259Y296932D01*
X898328Y296919D01*
X898396Y296901D01*
X898463Y296880D01*
X898528Y296855D01*
X898592Y296826D01*
X898655Y296794D01*
X898715Y296758D01*
X898773Y296719D01*
X898829Y296677D01*
X898883Y296632D01*
X898934Y296584D01*
X898982Y296533D01*
X899027Y296479D01*
X899069Y296423D01*
X899108Y296365D01*
X899144Y296305D01*
X899176Y296242D01*
X899205Y296178D01*
X899230Y296113D01*
X899251Y296046D01*
X899269Y295978D01*
X899282Y295909D01*
X899292Y295840D01*
X899298Y295770D01*
X899300Y295700D01*
X899298Y295630D01*
X899292Y295560D01*
X899282Y295491D01*
X899269Y295422D01*
X899251Y295354D01*
X899230Y295287D01*
X899205Y295222D01*
X899176Y295158D01*
X899144Y295095D01*
X899108Y295035D01*
X899069Y294977D01*
X899027Y294921D01*
X898982Y294867D01*
X898934Y294816D01*
X898883Y294768D01*
X898829Y294723D01*
X898773Y294681D01*
X898715Y294642D01*
X898655Y294606D01*
X898592Y294574D01*
X898528Y294545D01*
X898463Y294520D01*
X898396Y294499D01*
X898328Y294481D01*
X898259Y294468D01*
X898190Y294458D01*
X898120Y294452D01*
X898050Y294450D01*
X897980Y294452D01*
X897910Y294458D01*
X897841Y294468D01*
X897772Y294481D01*
X897704Y294499D01*
X897637Y294520D01*
X897572Y294545D01*
X897508Y294574D01*
X897445Y294606D01*
X897385Y294642D01*
X897327Y294681D01*
X897271Y294723D01*
X897217Y294768D01*
X897166Y294816D01*
X897118Y294867D01*
X897073Y294921D01*
X897031Y294977D01*
X896992Y295035D01*
X896956Y295095D01*
X896924Y295158D01*
X896895Y295222D01*
X896870Y295287D01*
X896849Y295354D01*
X896831Y295422D01*
X896818Y295491D01*
X896808Y295560D01*
X896802Y295630D01*
X896800Y295700D01*
D11*
X908300Y295200D02*
X908300Y362200D01*
X949300Y362200D02*
X949300Y295200D01*
X908300Y295200D01*
X908300Y362200D02*
X949300Y362200D01*
D12*
X924132Y332129D02*
X924132Y326902D01*
X924133Y326902D02*
X924131Y326813D01*
X924125Y326724D01*
X924115Y326636D01*
X924102Y326548D01*
X924084Y326461D01*
X924063Y326374D01*
X924037Y326289D01*
X924008Y326205D01*
X923976Y326122D01*
X923939Y326041D01*
X923899Y325961D01*
X923856Y325884D01*
X923809Y325808D01*
X923759Y325734D01*
X923706Y325663D01*
X923650Y325594D01*
X923590Y325528D01*
X923528Y325464D01*
X923463Y325404D01*
X923396Y325346D01*
X923326Y325291D01*
X923253Y325239D01*
X923178Y325191D01*
X923102Y325146D01*
X923023Y325104D01*
X922943Y325066D01*
X922861Y325032D01*
X922777Y325001D01*
X922692Y324974D01*
X922607Y324950D01*
X922520Y324931D01*
X922432Y324915D01*
X922344Y324903D01*
X922255Y324895D01*
X922166Y324891D01*
X922078Y324891D01*
X921989Y324895D01*
X921900Y324903D01*
X921812Y324915D01*
X921724Y324931D01*
X921637Y324950D01*
X921552Y324974D01*
X921467Y325001D01*
X921383Y325032D01*
X921301Y325066D01*
X921221Y325104D01*
X921142Y325146D01*
X921066Y325191D01*
X920991Y325239D01*
X920918Y325291D01*
X920848Y325346D01*
X920781Y325404D01*
X920716Y325464D01*
X920654Y325528D01*
X920594Y325594D01*
X920538Y325663D01*
X920485Y325734D01*
X920435Y325808D01*
X920388Y325884D01*
X920345Y325961D01*
X920305Y326041D01*
X920268Y326122D01*
X920236Y326205D01*
X920207Y326289D01*
X920181Y326374D01*
X920160Y326461D01*
X920142Y326548D01*
X920129Y326636D01*
X920119Y326724D01*
X920113Y326813D01*
X920111Y326902D01*
X920111Y332129D01*
X916692Y324891D02*
X914682Y324891D01*
X914593Y324893D01*
X914504Y324899D01*
X914416Y324909D01*
X914328Y324922D01*
X914241Y324940D01*
X914154Y324961D01*
X914069Y324987D01*
X913985Y325016D01*
X913902Y325048D01*
X913821Y325085D01*
X913741Y325125D01*
X913664Y325168D01*
X913588Y325215D01*
X913514Y325265D01*
X913443Y325318D01*
X913374Y325374D01*
X913308Y325434D01*
X913244Y325496D01*
X913184Y325561D01*
X913126Y325628D01*
X913071Y325698D01*
X913019Y325771D01*
X912971Y325846D01*
X912926Y325922D01*
X912884Y326001D01*
X912846Y326081D01*
X912812Y326163D01*
X912781Y326247D01*
X912754Y326332D01*
X912730Y326417D01*
X912711Y326504D01*
X912695Y326592D01*
X912683Y326680D01*
X912675Y326769D01*
X912671Y326858D01*
X912671Y326946D01*
X912675Y327035D01*
X912683Y327124D01*
X912695Y327212D01*
X912711Y327300D01*
X912730Y327387D01*
X912754Y327472D01*
X912781Y327557D01*
X912812Y327641D01*
X912846Y327723D01*
X912884Y327803D01*
X912926Y327882D01*
X912971Y327958D01*
X913019Y328033D01*
X913071Y328106D01*
X913126Y328176D01*
X913184Y328243D01*
X913244Y328308D01*
X913308Y328370D01*
X913374Y328430D01*
X913443Y328486D01*
X913514Y328539D01*
X913588Y328589D01*
X913664Y328636D01*
X913741Y328679D01*
X913821Y328719D01*
X913902Y328756D01*
X913985Y328788D01*
X914069Y328817D01*
X914154Y328843D01*
X914241Y328864D01*
X914328Y328882D01*
X914416Y328895D01*
X914504Y328905D01*
X914593Y328911D01*
X914682Y328913D01*
X914279Y332129D02*
X916692Y332129D01*
X914279Y332129D02*
X914200Y332127D01*
X914121Y332121D01*
X914043Y332112D01*
X913965Y332098D01*
X913888Y332081D01*
X913812Y332060D01*
X913737Y332035D01*
X913664Y332007D01*
X913591Y331975D01*
X913521Y331939D01*
X913452Y331900D01*
X913386Y331858D01*
X913321Y331813D01*
X913259Y331764D01*
X913199Y331712D01*
X913142Y331658D01*
X913088Y331601D01*
X913036Y331541D01*
X912987Y331479D01*
X912942Y331414D01*
X912900Y331348D01*
X912861Y331279D01*
X912825Y331209D01*
X912793Y331136D01*
X912765Y331063D01*
X912740Y330988D01*
X912719Y330912D01*
X912702Y330835D01*
X912688Y330757D01*
X912679Y330679D01*
X912673Y330600D01*
X912671Y330521D01*
X912673Y330442D01*
X912679Y330363D01*
X912688Y330285D01*
X912702Y330207D01*
X912719Y330130D01*
X912740Y330054D01*
X912765Y329979D01*
X912793Y329906D01*
X912825Y329833D01*
X912861Y329763D01*
X912900Y329694D01*
X912942Y329628D01*
X912987Y329563D01*
X913036Y329501D01*
X913088Y329441D01*
X913142Y329384D01*
X913199Y329330D01*
X913259Y329278D01*
X913321Y329229D01*
X913386Y329184D01*
X913452Y329142D01*
X913521Y329103D01*
X913591Y329067D01*
X913664Y329035D01*
X913737Y329007D01*
X913812Y328982D01*
X913888Y328961D01*
X913965Y328944D01*
X914043Y328930D01*
X914121Y328921D01*
X914200Y328915D01*
X914279Y328913D01*
X914279Y328912D02*
X915888Y328912D01*
D13*
X831658Y320286D02*
X831658Y317689D01*
X831660Y317590D01*
X831666Y317490D01*
X831675Y317391D01*
X831688Y317293D01*
X831705Y317195D01*
X831726Y317097D01*
X831751Y317001D01*
X831779Y316906D01*
X831811Y316812D01*
X831846Y316719D01*
X831885Y316627D01*
X831928Y316537D01*
X831973Y316449D01*
X832023Y316362D01*
X832075Y316278D01*
X832131Y316195D01*
X832189Y316115D01*
X832251Y316037D01*
X832316Y315962D01*
X832384Y315889D01*
X832454Y315819D01*
X832527Y315751D01*
X832602Y315686D01*
X832680Y315624D01*
X832760Y315566D01*
X832843Y315510D01*
X832927Y315458D01*
X833014Y315408D01*
X833102Y315363D01*
X833192Y315320D01*
X833284Y315281D01*
X833377Y315246D01*
X833471Y315214D01*
X833566Y315186D01*
X833662Y315161D01*
X833760Y315140D01*
X833858Y315123D01*
X833956Y315110D01*
X834055Y315101D01*
X834155Y315095D01*
X834254Y315093D01*
X840746Y315093D01*
X840845Y315095D01*
X840945Y315101D01*
X841044Y315110D01*
X841142Y315123D01*
X841240Y315140D01*
X841338Y315161D01*
X841434Y315186D01*
X841529Y315214D01*
X841623Y315246D01*
X841716Y315281D01*
X841808Y315320D01*
X841898Y315363D01*
X841986Y315408D01*
X842073Y315458D01*
X842157Y315510D01*
X842240Y315566D01*
X842320Y315624D01*
X842398Y315686D01*
X842473Y315751D01*
X842546Y315819D01*
X842616Y315889D01*
X842684Y315962D01*
X842749Y316037D01*
X842811Y316115D01*
X842869Y316195D01*
X842925Y316278D01*
X842977Y316362D01*
X843027Y316449D01*
X843072Y316537D01*
X843115Y316627D01*
X843154Y316719D01*
X843189Y316811D01*
X843221Y316906D01*
X843249Y317001D01*
X843274Y317097D01*
X843295Y317195D01*
X843312Y317293D01*
X843325Y317391D01*
X843334Y317490D01*
X843340Y317590D01*
X843342Y317689D01*
X843342Y320286D01*
X834904Y324650D02*
X835017Y324652D01*
X835130Y324658D01*
X835243Y324668D01*
X835356Y324682D01*
X835468Y324699D01*
X835579Y324721D01*
X835689Y324746D01*
X835799Y324776D01*
X835907Y324809D01*
X836014Y324846D01*
X836120Y324886D01*
X836224Y324931D01*
X836327Y324979D01*
X836428Y325030D01*
X836527Y325085D01*
X836624Y325143D01*
X836719Y325205D01*
X836812Y325270D01*
X836902Y325338D01*
X836990Y325409D01*
X837076Y325484D01*
X837159Y325561D01*
X837239Y325641D01*
X837316Y325724D01*
X837391Y325810D01*
X837462Y325898D01*
X837530Y325988D01*
X837595Y326081D01*
X837657Y326176D01*
X837715Y326273D01*
X837770Y326372D01*
X837821Y326473D01*
X837869Y326576D01*
X837914Y326680D01*
X837954Y326786D01*
X837991Y326893D01*
X838024Y327001D01*
X838054Y327111D01*
X838079Y327221D01*
X838101Y327332D01*
X838118Y327444D01*
X838132Y327557D01*
X838142Y327670D01*
X838148Y327783D01*
X838150Y327896D01*
X838148Y328009D01*
X838142Y328122D01*
X838132Y328235D01*
X838118Y328348D01*
X838101Y328460D01*
X838079Y328571D01*
X838054Y328681D01*
X838024Y328791D01*
X837991Y328899D01*
X837954Y329006D01*
X837914Y329112D01*
X837869Y329216D01*
X837821Y329319D01*
X837770Y329420D01*
X837715Y329519D01*
X837657Y329616D01*
X837595Y329711D01*
X837530Y329804D01*
X837462Y329894D01*
X837391Y329982D01*
X837316Y330068D01*
X837239Y330151D01*
X837159Y330231D01*
X837076Y330308D01*
X836990Y330383D01*
X836902Y330454D01*
X836812Y330522D01*
X836719Y330587D01*
X836624Y330649D01*
X836527Y330707D01*
X836428Y330762D01*
X836327Y330813D01*
X836224Y330861D01*
X836120Y330906D01*
X836014Y330946D01*
X835907Y330983D01*
X835799Y331016D01*
X835689Y331046D01*
X835579Y331071D01*
X835468Y331093D01*
X835356Y331110D01*
X835243Y331124D01*
X835130Y331134D01*
X835017Y331140D01*
X834904Y331142D01*
X834791Y331140D01*
X834678Y331134D01*
X834565Y331124D01*
X834452Y331110D01*
X834340Y331093D01*
X834229Y331071D01*
X834119Y331046D01*
X834009Y331016D01*
X833901Y330983D01*
X833794Y330946D01*
X833688Y330906D01*
X833584Y330861D01*
X833481Y330813D01*
X833380Y330762D01*
X833281Y330707D01*
X833184Y330649D01*
X833089Y330587D01*
X832996Y330522D01*
X832906Y330454D01*
X832818Y330383D01*
X832732Y330308D01*
X832649Y330231D01*
X832569Y330151D01*
X832492Y330068D01*
X832417Y329982D01*
X832346Y329894D01*
X832278Y329804D01*
X832213Y329711D01*
X832151Y329616D01*
X832093Y329519D01*
X832038Y329420D01*
X831987Y329319D01*
X831939Y329216D01*
X831894Y329112D01*
X831854Y329006D01*
X831817Y328899D01*
X831784Y328791D01*
X831754Y328681D01*
X831729Y328571D01*
X831707Y328460D01*
X831690Y328348D01*
X831676Y328235D01*
X831666Y328122D01*
X831660Y328009D01*
X831658Y327896D01*
X831660Y327783D01*
X831666Y327670D01*
X831676Y327557D01*
X831690Y327444D01*
X831707Y327332D01*
X831729Y327221D01*
X831754Y327111D01*
X831784Y327001D01*
X831817Y326893D01*
X831854Y326786D01*
X831894Y326680D01*
X831939Y326576D01*
X831987Y326473D01*
X832038Y326372D01*
X832093Y326273D01*
X832151Y326176D01*
X832213Y326081D01*
X832278Y325988D01*
X832346Y325898D01*
X832417Y325810D01*
X832492Y325724D01*
X832569Y325641D01*
X832649Y325561D01*
X832732Y325484D01*
X832818Y325409D01*
X832906Y325338D01*
X832996Y325270D01*
X833089Y325205D01*
X833184Y325143D01*
X833281Y325085D01*
X833380Y325030D01*
X833481Y324979D01*
X833584Y324931D01*
X833688Y324886D01*
X833794Y324846D01*
X833901Y324809D01*
X834009Y324776D01*
X834119Y324746D01*
X834229Y324721D01*
X834340Y324699D01*
X834452Y324682D01*
X834565Y324668D01*
X834678Y324658D01*
X834791Y324652D01*
X834904Y324650D01*
X840746Y325300D02*
X840847Y325302D01*
X840947Y325308D01*
X841047Y325318D01*
X841147Y325331D01*
X841246Y325349D01*
X841345Y325370D01*
X841442Y325395D01*
X841539Y325424D01*
X841634Y325457D01*
X841728Y325493D01*
X841820Y325533D01*
X841911Y325576D01*
X842000Y325623D01*
X842087Y325673D01*
X842173Y325727D01*
X842256Y325784D01*
X842336Y325844D01*
X842415Y325907D01*
X842491Y325974D01*
X842564Y326043D01*
X842634Y326115D01*
X842702Y326189D01*
X842767Y326266D01*
X842828Y326346D01*
X842887Y326428D01*
X842942Y326512D01*
X842994Y326598D01*
X843043Y326686D01*
X843088Y326776D01*
X843130Y326868D01*
X843168Y326961D01*
X843202Y327056D01*
X843233Y327151D01*
X843260Y327248D01*
X843283Y327346D01*
X843303Y327445D01*
X843318Y327545D01*
X843330Y327645D01*
X843338Y327745D01*
X843342Y327846D01*
X843342Y327946D01*
X843338Y328047D01*
X843330Y328147D01*
X843318Y328247D01*
X843303Y328347D01*
X843283Y328446D01*
X843260Y328544D01*
X843233Y328641D01*
X843202Y328736D01*
X843168Y328831D01*
X843130Y328924D01*
X843088Y329016D01*
X843043Y329106D01*
X842994Y329194D01*
X842942Y329280D01*
X842887Y329364D01*
X842828Y329446D01*
X842767Y329526D01*
X842702Y329603D01*
X842634Y329677D01*
X842564Y329749D01*
X842491Y329818D01*
X842415Y329885D01*
X842336Y329948D01*
X842256Y330008D01*
X842173Y330065D01*
X842087Y330119D01*
X842000Y330169D01*
X841911Y330216D01*
X841820Y330259D01*
X841728Y330299D01*
X841634Y330335D01*
X841539Y330368D01*
X841442Y330397D01*
X841345Y330422D01*
X841246Y330443D01*
X841147Y330461D01*
X841047Y330474D01*
X840947Y330484D01*
X840847Y330490D01*
X840746Y330492D01*
X840645Y330490D01*
X840545Y330484D01*
X840445Y330474D01*
X840345Y330461D01*
X840246Y330443D01*
X840147Y330422D01*
X840050Y330397D01*
X839953Y330368D01*
X839858Y330335D01*
X839764Y330299D01*
X839672Y330259D01*
X839581Y330216D01*
X839492Y330169D01*
X839405Y330119D01*
X839319Y330065D01*
X839236Y330008D01*
X839156Y329948D01*
X839077Y329885D01*
X839001Y329818D01*
X838928Y329749D01*
X838858Y329677D01*
X838790Y329603D01*
X838725Y329526D01*
X838664Y329446D01*
X838605Y329364D01*
X838550Y329280D01*
X838498Y329194D01*
X838449Y329106D01*
X838404Y329016D01*
X838362Y328924D01*
X838324Y328831D01*
X838290Y328736D01*
X838259Y328641D01*
X838232Y328544D01*
X838209Y328446D01*
X838189Y328347D01*
X838174Y328247D01*
X838162Y328147D01*
X838154Y328047D01*
X838150Y327946D01*
X838150Y327846D01*
X838154Y327745D01*
X838162Y327645D01*
X838174Y327545D01*
X838189Y327445D01*
X838209Y327346D01*
X838232Y327248D01*
X838259Y327151D01*
X838290Y327056D01*
X838324Y326961D01*
X838362Y326868D01*
X838404Y326776D01*
X838449Y326686D01*
X838498Y326598D01*
X838550Y326512D01*
X838605Y326428D01*
X838664Y326346D01*
X838725Y326266D01*
X838790Y326189D01*
X838858Y326115D01*
X838928Y326043D01*
X839001Y325974D01*
X839077Y325907D01*
X839156Y325844D01*
X839236Y325784D01*
X839319Y325727D01*
X839405Y325673D01*
X839492Y325623D01*
X839581Y325576D01*
X839672Y325533D01*
X839764Y325493D01*
X839858Y325457D01*
X839953Y325424D01*
X840050Y325395D01*
X840147Y325370D01*
X840246Y325349D01*
X840345Y325331D01*
X840445Y325318D01*
X840545Y325308D01*
X840645Y325302D01*
X840746Y325300D01*
X42005Y142142D02*
X42005Y130458D01*
X42005Y142142D02*
X38760Y142142D01*
X38647Y142140D01*
X38534Y142134D01*
X38421Y142124D01*
X38308Y142110D01*
X38196Y142093D01*
X38085Y142071D01*
X37975Y142046D01*
X37865Y142016D01*
X37757Y141983D01*
X37650Y141946D01*
X37544Y141906D01*
X37440Y141861D01*
X37337Y141813D01*
X37236Y141762D01*
X37137Y141707D01*
X37040Y141649D01*
X36945Y141587D01*
X36852Y141522D01*
X36762Y141454D01*
X36674Y141383D01*
X36588Y141308D01*
X36505Y141231D01*
X36425Y141151D01*
X36348Y141068D01*
X36273Y140982D01*
X36202Y140894D01*
X36134Y140804D01*
X36069Y140711D01*
X36007Y140616D01*
X35949Y140519D01*
X35894Y140420D01*
X35843Y140319D01*
X35795Y140216D01*
X35750Y140112D01*
X35710Y140006D01*
X35673Y139899D01*
X35640Y139791D01*
X35610Y139681D01*
X35585Y139571D01*
X35563Y139460D01*
X35546Y139348D01*
X35532Y139235D01*
X35522Y139122D01*
X35516Y139009D01*
X35514Y138896D01*
X35516Y138783D01*
X35522Y138670D01*
X35532Y138557D01*
X35546Y138444D01*
X35563Y138332D01*
X35585Y138221D01*
X35610Y138111D01*
X35640Y138001D01*
X35673Y137893D01*
X35710Y137786D01*
X35750Y137680D01*
X35795Y137576D01*
X35843Y137473D01*
X35894Y137372D01*
X35949Y137273D01*
X36007Y137176D01*
X36069Y137081D01*
X36134Y136988D01*
X36202Y136898D01*
X36273Y136810D01*
X36348Y136724D01*
X36425Y136641D01*
X36505Y136561D01*
X36588Y136484D01*
X36674Y136409D01*
X36762Y136338D01*
X36852Y136270D01*
X36945Y136205D01*
X37040Y136143D01*
X37137Y136085D01*
X37236Y136030D01*
X37337Y135979D01*
X37440Y135931D01*
X37544Y135886D01*
X37650Y135846D01*
X37757Y135809D01*
X37865Y135776D01*
X37975Y135746D01*
X38085Y135721D01*
X38196Y135699D01*
X38308Y135682D01*
X38421Y135668D01*
X38534Y135658D01*
X38647Y135652D01*
X38760Y135650D01*
X38760Y135651D02*
X42005Y135651D01*
X38111Y135651D02*
X35514Y130458D01*
X30649Y136949D02*
X26754Y136949D01*
X26655Y136947D01*
X26555Y136941D01*
X26456Y136932D01*
X26358Y136919D01*
X26260Y136902D01*
X26162Y136881D01*
X26066Y136856D01*
X25971Y136828D01*
X25877Y136796D01*
X25784Y136761D01*
X25692Y136722D01*
X25602Y136679D01*
X25514Y136634D01*
X25427Y136584D01*
X25343Y136532D01*
X25260Y136476D01*
X25180Y136418D01*
X25102Y136356D01*
X25027Y136291D01*
X24954Y136223D01*
X24884Y136153D01*
X24816Y136080D01*
X24751Y136005D01*
X24689Y135927D01*
X24631Y135847D01*
X24575Y135764D01*
X24523Y135680D01*
X24473Y135593D01*
X24428Y135505D01*
X24385Y135415D01*
X24346Y135323D01*
X24311Y135230D01*
X24279Y135136D01*
X24251Y135041D01*
X24226Y134945D01*
X24205Y134847D01*
X24188Y134749D01*
X24175Y134651D01*
X24166Y134552D01*
X24160Y134452D01*
X24158Y134353D01*
X24158Y133704D01*
X24160Y133591D01*
X24166Y133478D01*
X24176Y133365D01*
X24190Y133252D01*
X24207Y133140D01*
X24229Y133029D01*
X24254Y132919D01*
X24284Y132809D01*
X24317Y132701D01*
X24354Y132594D01*
X24394Y132488D01*
X24439Y132384D01*
X24487Y132281D01*
X24538Y132180D01*
X24593Y132081D01*
X24651Y131984D01*
X24713Y131889D01*
X24778Y131796D01*
X24846Y131706D01*
X24917Y131618D01*
X24992Y131532D01*
X25069Y131449D01*
X25149Y131369D01*
X25232Y131292D01*
X25318Y131217D01*
X25406Y131146D01*
X25496Y131078D01*
X25589Y131013D01*
X25684Y130951D01*
X25781Y130893D01*
X25880Y130838D01*
X25981Y130787D01*
X26084Y130739D01*
X26188Y130694D01*
X26294Y130654D01*
X26401Y130617D01*
X26509Y130584D01*
X26619Y130554D01*
X26729Y130529D01*
X26840Y130507D01*
X26952Y130490D01*
X27065Y130476D01*
X27178Y130466D01*
X27291Y130460D01*
X27404Y130458D01*
X27517Y130460D01*
X27630Y130466D01*
X27743Y130476D01*
X27856Y130490D01*
X27968Y130507D01*
X28079Y130529D01*
X28189Y130554D01*
X28299Y130584D01*
X28407Y130617D01*
X28514Y130654D01*
X28620Y130694D01*
X28724Y130739D01*
X28827Y130787D01*
X28928Y130838D01*
X29027Y130893D01*
X29124Y130951D01*
X29219Y131013D01*
X29312Y131078D01*
X29402Y131146D01*
X29490Y131217D01*
X29576Y131292D01*
X29659Y131369D01*
X29739Y131449D01*
X29816Y131532D01*
X29891Y131618D01*
X29962Y131706D01*
X30030Y131796D01*
X30095Y131889D01*
X30157Y131984D01*
X30215Y132081D01*
X30270Y132180D01*
X30321Y132281D01*
X30369Y132384D01*
X30414Y132488D01*
X30454Y132594D01*
X30491Y132701D01*
X30524Y132809D01*
X30554Y132919D01*
X30579Y133029D01*
X30601Y133140D01*
X30618Y133252D01*
X30632Y133365D01*
X30642Y133478D01*
X30648Y133591D01*
X30650Y133704D01*
X30649Y133704D02*
X30649Y136949D01*
X30647Y137092D01*
X30641Y137235D01*
X30631Y137378D01*
X30617Y137520D01*
X30600Y137662D01*
X30578Y137804D01*
X30553Y137945D01*
X30523Y138085D01*
X30490Y138224D01*
X30453Y138362D01*
X30412Y138499D01*
X30368Y138635D01*
X30319Y138770D01*
X30267Y138903D01*
X30212Y139035D01*
X30152Y139165D01*
X30089Y139294D01*
X30023Y139421D01*
X29953Y139546D01*
X29880Y139668D01*
X29803Y139789D01*
X29723Y139908D01*
X29640Y140024D01*
X29554Y140139D01*
X29465Y140250D01*
X29372Y140360D01*
X29277Y140466D01*
X29178Y140570D01*
X29077Y140671D01*
X28973Y140770D01*
X28867Y140865D01*
X28757Y140958D01*
X28646Y141047D01*
X28531Y141133D01*
X28415Y141216D01*
X28296Y141296D01*
X28175Y141373D01*
X28053Y141446D01*
X27928Y141516D01*
X27801Y141582D01*
X27672Y141645D01*
X27542Y141705D01*
X27410Y141760D01*
X27277Y141812D01*
X27142Y141861D01*
X27006Y141905D01*
X26869Y141946D01*
X26731Y141983D01*
X26592Y142016D01*
X26452Y142046D01*
X26311Y142071D01*
X26169Y142093D01*
X26027Y142110D01*
X25885Y142124D01*
X25742Y142134D01*
X25599Y142140D01*
X25456Y142142D01*
X39005Y190458D02*
X39005Y202142D01*
X35760Y202142D01*
X35647Y202140D01*
X35534Y202134D01*
X35421Y202124D01*
X35308Y202110D01*
X35196Y202093D01*
X35085Y202071D01*
X34975Y202046D01*
X34865Y202016D01*
X34757Y201983D01*
X34650Y201946D01*
X34544Y201906D01*
X34440Y201861D01*
X34337Y201813D01*
X34236Y201762D01*
X34137Y201707D01*
X34040Y201649D01*
X33945Y201587D01*
X33852Y201522D01*
X33762Y201454D01*
X33674Y201383D01*
X33588Y201308D01*
X33505Y201231D01*
X33425Y201151D01*
X33348Y201068D01*
X33273Y200982D01*
X33202Y200894D01*
X33134Y200804D01*
X33069Y200711D01*
X33007Y200616D01*
X32949Y200519D01*
X32894Y200420D01*
X32843Y200319D01*
X32795Y200216D01*
X32750Y200112D01*
X32710Y200006D01*
X32673Y199899D01*
X32640Y199791D01*
X32610Y199681D01*
X32585Y199571D01*
X32563Y199460D01*
X32546Y199348D01*
X32532Y199235D01*
X32522Y199122D01*
X32516Y199009D01*
X32514Y198896D01*
X32516Y198783D01*
X32522Y198670D01*
X32532Y198557D01*
X32546Y198444D01*
X32563Y198332D01*
X32585Y198221D01*
X32610Y198111D01*
X32640Y198001D01*
X32673Y197893D01*
X32710Y197786D01*
X32750Y197680D01*
X32795Y197576D01*
X32843Y197473D01*
X32894Y197372D01*
X32949Y197273D01*
X33007Y197176D01*
X33069Y197081D01*
X33134Y196988D01*
X33202Y196898D01*
X33273Y196810D01*
X33348Y196724D01*
X33425Y196641D01*
X33505Y196561D01*
X33588Y196484D01*
X33674Y196409D01*
X33762Y196338D01*
X33852Y196270D01*
X33945Y196205D01*
X34040Y196143D01*
X34137Y196085D01*
X34236Y196030D01*
X34337Y195979D01*
X34440Y195931D01*
X34544Y195886D01*
X34650Y195846D01*
X34757Y195809D01*
X34865Y195776D01*
X34975Y195746D01*
X35085Y195721D01*
X35196Y195699D01*
X35308Y195682D01*
X35421Y195668D01*
X35534Y195658D01*
X35647Y195652D01*
X35760Y195650D01*
X35760Y195651D02*
X39005Y195651D01*
X35111Y195651D02*
X32514Y190458D01*
X27649Y200844D02*
X27649Y202142D01*
X21158Y202142D01*
X24404Y190458D01*
X154078Y336000D02*
X154082Y336366D01*
X154096Y336732D01*
X154118Y337098D01*
X154150Y337463D01*
X154190Y337827D01*
X154240Y338190D01*
X154298Y338551D01*
X154365Y338911D01*
X154441Y339269D01*
X154525Y339626D01*
X154619Y339980D01*
X154721Y340332D01*
X154831Y340681D01*
X154950Y341027D01*
X155078Y341370D01*
X155214Y341710D01*
X155358Y342047D01*
X155511Y342380D01*
X155671Y342709D01*
X155840Y343034D01*
X156017Y343355D01*
X156201Y343671D01*
X156393Y343983D01*
X156593Y344290D01*
X156800Y344592D01*
X157015Y344889D01*
X157236Y345180D01*
X157465Y345466D01*
X157701Y345747D01*
X157944Y346021D01*
X158193Y346289D01*
X158449Y346551D01*
X158711Y346807D01*
X158979Y347056D01*
X159253Y347299D01*
X159534Y347535D01*
X159820Y347764D01*
X160111Y347985D01*
X160408Y348200D01*
X160710Y348407D01*
X161017Y348607D01*
X161329Y348799D01*
X161645Y348983D01*
X161966Y349160D01*
X162291Y349329D01*
X162620Y349489D01*
X162953Y349642D01*
X163290Y349786D01*
X163630Y349922D01*
X163973Y350050D01*
X164319Y350169D01*
X164668Y350279D01*
X165020Y350381D01*
X165374Y350475D01*
X165731Y350559D01*
X166089Y350635D01*
X166449Y350702D01*
X166810Y350760D01*
X167173Y350810D01*
X167537Y350850D01*
X167902Y350882D01*
X168268Y350904D01*
X168634Y350918D01*
X169000Y350922D01*
X169366Y350918D01*
X169732Y350904D01*
X170098Y350882D01*
X170463Y350850D01*
X170827Y350810D01*
X171190Y350760D01*
X171551Y350702D01*
X171911Y350635D01*
X172269Y350559D01*
X172626Y350475D01*
X172980Y350381D01*
X173332Y350279D01*
X173681Y350169D01*
X174027Y350050D01*
X174370Y349922D01*
X174710Y349786D01*
X175047Y349642D01*
X175380Y349489D01*
X175709Y349329D01*
X176034Y349160D01*
X176355Y348983D01*
X176671Y348799D01*
X176983Y348607D01*
X177290Y348407D01*
X177592Y348200D01*
X177889Y347985D01*
X178180Y347764D01*
X178466Y347535D01*
X178747Y347299D01*
X179021Y347056D01*
X179289Y346807D01*
X179551Y346551D01*
X179807Y346289D01*
X180056Y346021D01*
X180299Y345747D01*
X180535Y345466D01*
X180764Y345180D01*
X180985Y344889D01*
X181200Y344592D01*
X181407Y344290D01*
X181607Y343983D01*
X181799Y343671D01*
X181983Y343355D01*
X182160Y343034D01*
X182329Y342709D01*
X182489Y342380D01*
X182642Y342047D01*
X182786Y341710D01*
X182922Y341370D01*
X183050Y341027D01*
X183169Y340681D01*
X183279Y340332D01*
X183381Y339980D01*
X183475Y339626D01*
X183559Y339269D01*
X183635Y338911D01*
X183702Y338551D01*
X183760Y338190D01*
X183810Y337827D01*
X183850Y337463D01*
X183882Y337098D01*
X183904Y336732D01*
X183918Y336366D01*
X183922Y336000D01*
X183918Y335634D01*
X183904Y335268D01*
X183882Y334902D01*
X183850Y334537D01*
X183810Y334173D01*
X183760Y333810D01*
X183702Y333449D01*
X183635Y333089D01*
X183559Y332731D01*
X183475Y332374D01*
X183381Y332020D01*
X183279Y331668D01*
X183169Y331319D01*
X183050Y330973D01*
X182922Y330630D01*
X182786Y330290D01*
X182642Y329953D01*
X182489Y329620D01*
X182329Y329291D01*
X182160Y328966D01*
X181983Y328645D01*
X181799Y328329D01*
X181607Y328017D01*
X181407Y327710D01*
X181200Y327408D01*
X180985Y327111D01*
X180764Y326820D01*
X180535Y326534D01*
X180299Y326253D01*
X180056Y325979D01*
X179807Y325711D01*
X179551Y325449D01*
X179289Y325193D01*
X179021Y324944D01*
X178747Y324701D01*
X178466Y324465D01*
X178180Y324236D01*
X177889Y324015D01*
X177592Y323800D01*
X177290Y323593D01*
X176983Y323393D01*
X176671Y323201D01*
X176355Y323017D01*
X176034Y322840D01*
X175709Y322671D01*
X175380Y322511D01*
X175047Y322358D01*
X174710Y322214D01*
X174370Y322078D01*
X174027Y321950D01*
X173681Y321831D01*
X173332Y321721D01*
X172980Y321619D01*
X172626Y321525D01*
X172269Y321441D01*
X171911Y321365D01*
X171551Y321298D01*
X171190Y321240D01*
X170827Y321190D01*
X170463Y321150D01*
X170098Y321118D01*
X169732Y321096D01*
X169366Y321082D01*
X169000Y321078D01*
X168634Y321082D01*
X168268Y321096D01*
X167902Y321118D01*
X167537Y321150D01*
X167173Y321190D01*
X166810Y321240D01*
X166449Y321298D01*
X166089Y321365D01*
X165731Y321441D01*
X165374Y321525D01*
X165020Y321619D01*
X164668Y321721D01*
X164319Y321831D01*
X163973Y321950D01*
X163630Y322078D01*
X163290Y322214D01*
X162953Y322358D01*
X162620Y322511D01*
X162291Y322671D01*
X161966Y322840D01*
X161645Y323017D01*
X161329Y323201D01*
X161017Y323393D01*
X160710Y323593D01*
X160408Y323800D01*
X160111Y324015D01*
X159820Y324236D01*
X159534Y324465D01*
X159253Y324701D01*
X158979Y324944D01*
X158711Y325193D01*
X158449Y325449D01*
X158193Y325711D01*
X157944Y325979D01*
X157701Y326253D01*
X157465Y326534D01*
X157236Y326820D01*
X157015Y327111D01*
X156800Y327408D01*
X156593Y327710D01*
X156393Y328017D01*
X156201Y328329D01*
X156017Y328645D01*
X155840Y328966D01*
X155671Y329291D01*
X155511Y329620D01*
X155358Y329953D01*
X155214Y330290D01*
X155078Y330630D01*
X154950Y330973D01*
X154831Y331319D01*
X154721Y331668D01*
X154619Y332020D01*
X154525Y332374D01*
X154441Y332731D01*
X154365Y333089D01*
X154298Y333449D01*
X154240Y333810D01*
X154190Y334173D01*
X154150Y334537D01*
X154118Y334902D01*
X154096Y335268D01*
X154082Y335634D01*
X154078Y336000D01*
X144271Y378897D02*
X144273Y379067D01*
X144279Y379236D01*
X144290Y379406D01*
X144304Y379575D01*
X144323Y379744D01*
X144346Y379912D01*
X144373Y380079D01*
X144404Y380246D01*
X144439Y380412D01*
X144478Y380577D01*
X144522Y380742D01*
X144569Y380905D01*
X144620Y381066D01*
X144675Y381227D01*
X144734Y381386D01*
X144797Y381544D01*
X144864Y381700D01*
X144935Y381854D01*
X145009Y382007D01*
X145088Y382157D01*
X145169Y382306D01*
X145255Y382453D01*
X145344Y382597D01*
X145437Y382739D01*
X145533Y382879D01*
X145632Y383017D01*
X145735Y383152D01*
X145841Y383284D01*
X145950Y383414D01*
X146063Y383542D01*
X146178Y383666D01*
X146297Y383787D01*
X146418Y383906D01*
X146542Y384021D01*
X146670Y384134D01*
X146800Y384243D01*
X146932Y384349D01*
X147067Y384452D01*
X147205Y384551D01*
X147345Y384647D01*
X147487Y384740D01*
X147631Y384829D01*
X147778Y384915D01*
X147927Y384996D01*
X148077Y385075D01*
X148230Y385149D01*
X148384Y385220D01*
X148540Y385287D01*
X148698Y385350D01*
X148857Y385409D01*
X149018Y385464D01*
X149179Y385515D01*
X149342Y385562D01*
X149507Y385606D01*
X149672Y385645D01*
X149838Y385680D01*
X150005Y385711D01*
X150172Y385738D01*
X150340Y385761D01*
X150509Y385780D01*
X150678Y385794D01*
X150848Y385805D01*
X151017Y385811D01*
X151187Y385813D01*
X151357Y385811D01*
X151526Y385805D01*
X151696Y385794D01*
X151865Y385780D01*
X152034Y385761D01*
X152202Y385738D01*
X152369Y385711D01*
X152536Y385680D01*
X152702Y385645D01*
X152867Y385606D01*
X153032Y385562D01*
X153195Y385515D01*
X153356Y385464D01*
X153517Y385409D01*
X153676Y385350D01*
X153834Y385287D01*
X153990Y385220D01*
X154144Y385149D01*
X154297Y385075D01*
X154447Y384996D01*
X154596Y384915D01*
X154743Y384829D01*
X154887Y384740D01*
X155029Y384647D01*
X155169Y384551D01*
X155307Y384452D01*
X155442Y384349D01*
X155574Y384243D01*
X155704Y384134D01*
X155832Y384021D01*
X155956Y383906D01*
X156077Y383787D01*
X156196Y383666D01*
X156311Y383542D01*
X156424Y383414D01*
X156533Y383284D01*
X156639Y383152D01*
X156742Y383017D01*
X156841Y382879D01*
X156937Y382739D01*
X157030Y382597D01*
X157119Y382453D01*
X157205Y382306D01*
X157286Y382157D01*
X157365Y382007D01*
X157439Y381854D01*
X157510Y381700D01*
X157577Y381544D01*
X157640Y381386D01*
X157699Y381227D01*
X157754Y381066D01*
X157805Y380905D01*
X157852Y380742D01*
X157896Y380577D01*
X157935Y380412D01*
X157970Y380246D01*
X158001Y380079D01*
X158028Y379912D01*
X158051Y379744D01*
X158070Y379575D01*
X158084Y379406D01*
X158095Y379236D01*
X158101Y379067D01*
X158103Y378897D01*
X158101Y378727D01*
X158095Y378558D01*
X158084Y378388D01*
X158070Y378219D01*
X158051Y378050D01*
X158028Y377882D01*
X158001Y377715D01*
X157970Y377548D01*
X157935Y377382D01*
X157896Y377217D01*
X157852Y377052D01*
X157805Y376889D01*
X157754Y376728D01*
X157699Y376567D01*
X157640Y376408D01*
X157577Y376250D01*
X157510Y376094D01*
X157439Y375940D01*
X157365Y375787D01*
X157286Y375637D01*
X157205Y375488D01*
X157119Y375341D01*
X157030Y375197D01*
X156937Y375055D01*
X156841Y374915D01*
X156742Y374777D01*
X156639Y374642D01*
X156533Y374510D01*
X156424Y374380D01*
X156311Y374252D01*
X156196Y374128D01*
X156077Y374007D01*
X155956Y373888D01*
X155832Y373773D01*
X155704Y373660D01*
X155574Y373551D01*
X155442Y373445D01*
X155307Y373342D01*
X155169Y373243D01*
X155029Y373147D01*
X154887Y373054D01*
X154743Y372965D01*
X154596Y372879D01*
X154447Y372798D01*
X154297Y372719D01*
X154144Y372645D01*
X153990Y372574D01*
X153834Y372507D01*
X153676Y372444D01*
X153517Y372385D01*
X153356Y372330D01*
X153195Y372279D01*
X153032Y372232D01*
X152867Y372188D01*
X152702Y372149D01*
X152536Y372114D01*
X152369Y372083D01*
X152202Y372056D01*
X152034Y372033D01*
X151865Y372014D01*
X151696Y372000D01*
X151526Y371989D01*
X151357Y371983D01*
X151187Y371981D01*
X151017Y371983D01*
X150848Y371989D01*
X150678Y372000D01*
X150509Y372014D01*
X150340Y372033D01*
X150172Y372056D01*
X150005Y372083D01*
X149838Y372114D01*
X149672Y372149D01*
X149507Y372188D01*
X149342Y372232D01*
X149179Y372279D01*
X149018Y372330D01*
X148857Y372385D01*
X148698Y372444D01*
X148540Y372507D01*
X148384Y372574D01*
X148230Y372645D01*
X148077Y372719D01*
X147927Y372798D01*
X147778Y372879D01*
X147631Y372965D01*
X147487Y373054D01*
X147345Y373147D01*
X147205Y373243D01*
X147067Y373342D01*
X146932Y373445D01*
X146800Y373551D01*
X146670Y373660D01*
X146542Y373773D01*
X146418Y373888D01*
X146297Y374007D01*
X146178Y374128D01*
X146063Y374252D01*
X145950Y374380D01*
X145841Y374510D01*
X145735Y374642D01*
X145632Y374777D01*
X145533Y374915D01*
X145437Y375055D01*
X145344Y375197D01*
X145255Y375341D01*
X145169Y375488D01*
X145088Y375637D01*
X145009Y375787D01*
X144935Y375940D01*
X144864Y376094D01*
X144797Y376250D01*
X144734Y376408D01*
X144675Y376567D01*
X144620Y376728D01*
X144569Y376889D01*
X144522Y377052D01*
X144478Y377217D01*
X144439Y377382D01*
X144404Y377548D01*
X144373Y377715D01*
X144346Y377882D01*
X144323Y378050D01*
X144304Y378219D01*
X144290Y378388D01*
X144279Y378558D01*
X144273Y378727D01*
X144271Y378897D01*
X278059Y285833D02*
X301688Y285833D01*
X301688Y260749D01*
X258065Y260749D01*
X258065Y411251D01*
X301688Y411251D01*
X301688Y382532D01*
X278059Y382532D01*
X278059Y285833D01*
X278059Y277108D01*
X258428Y276745D02*
X301325Y276745D01*
X275514Y269474D02*
X275514Y261113D01*
X275514Y269474D02*
X295145Y269474D01*
X295145Y261113D01*
X292600Y261113D02*
X292600Y266929D01*
X294781Y269110D01*
X278423Y266565D02*
X278423Y261113D01*
X278423Y266565D02*
X275878Y269110D01*
X278423Y266929D02*
X292237Y266929D01*
X280967Y260022D02*
X280967Y253115D01*
X272243Y254206D01*
X232618Y249843D01*
X222075Y249843D01*
X222075Y254933D01*
X77027Y254933D01*
X77027Y249843D01*
X2140Y249843D01*
X2140Y285833D01*
X60305Y285833D01*
X60305Y382168D01*
X2140Y382168D01*
X2140Y421793D01*
X50853Y421793D01*
X77027Y421793D01*
X77027Y416704D01*
X222075Y416704D01*
X222075Y421430D01*
X232618Y421430D01*
X272243Y417794D01*
X280967Y418521D01*
X280967Y411614D01*
X272243Y411614D02*
X272243Y417431D01*
X295145Y410887D02*
X295145Y402162D01*
X275878Y402162D01*
X275878Y410887D01*
X278786Y410887D02*
X278786Y405071D01*
X276241Y402526D01*
X292600Y405071D02*
X292600Y410887D01*
X292600Y405071D02*
X292600Y404707D01*
X294781Y402526D01*
X292600Y405071D02*
X279150Y405071D01*
X258428Y394892D02*
X300961Y394892D01*
X278059Y394165D02*
X278059Y382895D01*
X274787Y395255D02*
X274787Y410887D01*
X274424Y276381D02*
X274424Y261113D01*
X280604Y411978D02*
X234799Y411978D01*
X232618Y409797D01*
X232618Y262930D01*
X232620Y262824D01*
X232626Y262718D01*
X232635Y262612D01*
X232649Y262507D01*
X232666Y262402D01*
X232688Y262298D01*
X232713Y262194D01*
X232741Y262092D01*
X232774Y261991D01*
X232810Y261891D01*
X232850Y261793D01*
X232893Y261696D01*
X232940Y261600D01*
X232990Y261507D01*
X233044Y261415D01*
X233101Y261325D01*
X233161Y261238D01*
X233224Y261153D01*
X233291Y261070D01*
X233360Y260989D01*
X233433Y260912D01*
X233508Y260837D01*
X233585Y260764D01*
X233666Y260695D01*
X233749Y260628D01*
X233834Y260565D01*
X233921Y260505D01*
X234011Y260448D01*
X234103Y260394D01*
X234196Y260344D01*
X234292Y260297D01*
X234389Y260254D01*
X234487Y260214D01*
X234587Y260178D01*
X234688Y260145D01*
X234790Y260117D01*
X234894Y260092D01*
X234998Y260070D01*
X235103Y260053D01*
X235208Y260039D01*
X235314Y260030D01*
X235420Y260024D01*
X235526Y260022D01*
X280604Y260022D01*
X242797Y259659D02*
X242797Y253479D01*
X244251Y251298D01*
X242433Y253842D02*
X232618Y252752D01*
X232618Y250207D01*
X272243Y254569D02*
X272243Y259659D01*
X247159Y259659D02*
X247159Y252025D01*
X257701Y272746D02*
X232981Y272746D01*
X232981Y398891D02*
X257701Y398891D01*
X247159Y412341D02*
X247159Y419612D01*
X242433Y418158D02*
X242433Y412341D01*
X242433Y418158D02*
X243887Y419975D01*
X242070Y417794D02*
X232254Y418885D01*
X222439Y418885D01*
X232254Y419248D02*
X232254Y421066D01*
X232618Y252752D02*
X222439Y252752D01*
X236980Y339999D02*
X236980Y355267D01*
X236617Y353086D02*
X232981Y353086D01*
X233345Y342180D02*
X236617Y342180D01*
X235162Y331638D02*
X232981Y331638D01*
X235162Y331638D02*
X235246Y331636D01*
X235330Y331630D01*
X235413Y331621D01*
X235496Y331607D01*
X235578Y331590D01*
X235660Y331569D01*
X235740Y331544D01*
X235819Y331515D01*
X235896Y331483D01*
X235972Y331447D01*
X236047Y331408D01*
X236119Y331366D01*
X236189Y331320D01*
X236258Y331271D01*
X236323Y331219D01*
X236387Y331164D01*
X236448Y331106D01*
X236506Y331045D01*
X236561Y330981D01*
X236613Y330916D01*
X236662Y330847D01*
X236708Y330777D01*
X236750Y330705D01*
X236789Y330630D01*
X236825Y330554D01*
X236857Y330477D01*
X236886Y330398D01*
X236911Y330318D01*
X236932Y330236D01*
X236949Y330154D01*
X236963Y330071D01*
X236972Y329988D01*
X236978Y329904D01*
X236980Y329820D01*
X236980Y314915D01*
X234799Y312734D02*
X232981Y312734D01*
X234799Y312734D02*
X234892Y312736D01*
X234984Y312742D01*
X235076Y312752D01*
X235168Y312765D01*
X235258Y312783D01*
X235349Y312804D01*
X235438Y312830D01*
X235526Y312859D01*
X235612Y312891D01*
X235697Y312928D01*
X235781Y312968D01*
X235863Y313011D01*
X235943Y313058D01*
X236020Y313108D01*
X236096Y313161D01*
X236169Y313218D01*
X236240Y313278D01*
X236308Y313340D01*
X236374Y313406D01*
X236436Y313474D01*
X236496Y313545D01*
X236553Y313618D01*
X236606Y313694D01*
X236656Y313771D01*
X236703Y313851D01*
X236746Y313933D01*
X236786Y314017D01*
X236823Y314102D01*
X236855Y314188D01*
X236884Y314276D01*
X236910Y314365D01*
X236931Y314456D01*
X236949Y314546D01*
X236962Y314638D01*
X236972Y314730D01*
X236978Y314822D01*
X236980Y314915D01*
X236617Y328002D02*
X232981Y328002D01*
X232981Y316733D02*
X236617Y316733D01*
X235162Y306191D02*
X232981Y306191D01*
X235162Y306191D02*
X235255Y306189D01*
X235347Y306183D01*
X235439Y306173D01*
X235531Y306160D01*
X235622Y306142D01*
X235712Y306121D01*
X235801Y306095D01*
X235889Y306066D01*
X235976Y306034D01*
X236061Y305997D01*
X236144Y305957D01*
X236226Y305914D01*
X236306Y305867D01*
X236384Y305817D01*
X236459Y305763D01*
X236533Y305707D01*
X236604Y305647D01*
X236672Y305584D01*
X236737Y305519D01*
X236800Y305451D01*
X236860Y305380D01*
X236916Y305306D01*
X236970Y305231D01*
X237020Y305153D01*
X237067Y305073D01*
X237110Y304991D01*
X237150Y304908D01*
X237187Y304823D01*
X237219Y304736D01*
X237248Y304648D01*
X237274Y304559D01*
X237295Y304469D01*
X237313Y304378D01*
X237326Y304286D01*
X237336Y304194D01*
X237342Y304102D01*
X237344Y304009D01*
X237344Y289469D01*
X235162Y287287D02*
X232981Y287287D01*
X235162Y287287D02*
X235255Y287289D01*
X235347Y287295D01*
X235439Y287305D01*
X235531Y287318D01*
X235622Y287336D01*
X235712Y287357D01*
X235801Y287383D01*
X235889Y287412D01*
X235976Y287444D01*
X236061Y287481D01*
X236144Y287521D01*
X236226Y287564D01*
X236306Y287611D01*
X236384Y287661D01*
X236459Y287715D01*
X236533Y287771D01*
X236604Y287831D01*
X236672Y287894D01*
X236737Y287959D01*
X236800Y288027D01*
X236860Y288098D01*
X236916Y288172D01*
X236970Y288247D01*
X237020Y288325D01*
X237067Y288405D01*
X237110Y288487D01*
X237150Y288570D01*
X237187Y288655D01*
X237219Y288742D01*
X237248Y288830D01*
X237274Y288919D01*
X237295Y289009D01*
X237313Y289100D01*
X237326Y289192D01*
X237336Y289284D01*
X237342Y289376D01*
X237344Y289469D01*
X236980Y291649D02*
X232981Y291649D01*
X232981Y302555D02*
X236980Y302555D01*
X235162Y338181D02*
X232981Y338181D01*
X235162Y338181D02*
X235246Y338183D01*
X235330Y338189D01*
X235413Y338198D01*
X235496Y338212D01*
X235578Y338229D01*
X235660Y338250D01*
X235740Y338275D01*
X235819Y338304D01*
X235896Y338336D01*
X235972Y338372D01*
X236047Y338411D01*
X236119Y338453D01*
X236189Y338499D01*
X236258Y338548D01*
X236323Y338600D01*
X236387Y338655D01*
X236448Y338713D01*
X236506Y338774D01*
X236561Y338838D01*
X236613Y338903D01*
X236662Y338972D01*
X236708Y339042D01*
X236750Y339114D01*
X236789Y339189D01*
X236825Y339265D01*
X236857Y339342D01*
X236886Y339421D01*
X236911Y339501D01*
X236932Y339583D01*
X236949Y339665D01*
X236963Y339748D01*
X236972Y339831D01*
X236978Y339915D01*
X236980Y339999D01*
X235162Y357085D02*
X232981Y357085D01*
X235162Y357085D02*
X235246Y357083D01*
X235330Y357077D01*
X235413Y357068D01*
X235496Y357054D01*
X235578Y357037D01*
X235660Y357016D01*
X235740Y356991D01*
X235819Y356962D01*
X235896Y356930D01*
X235972Y356894D01*
X236047Y356855D01*
X236119Y356813D01*
X236189Y356767D01*
X236258Y356718D01*
X236323Y356666D01*
X236387Y356611D01*
X236448Y356553D01*
X236506Y356492D01*
X236561Y356428D01*
X236613Y356363D01*
X236662Y356294D01*
X236708Y356224D01*
X236750Y356152D01*
X236789Y356077D01*
X236825Y356001D01*
X236857Y355924D01*
X236886Y355845D01*
X236911Y355765D01*
X236932Y355683D01*
X236949Y355601D01*
X236963Y355518D01*
X236972Y355435D01*
X236978Y355351D01*
X236980Y355267D01*
X207171Y363628D02*
X206784Y363623D01*
X206398Y363609D01*
X206012Y363586D01*
X205627Y363553D01*
X205243Y363511D01*
X204860Y363460D01*
X204478Y363400D01*
X204098Y363330D01*
X203719Y363251D01*
X203343Y363163D01*
X202969Y363066D01*
X202597Y362960D01*
X202228Y362845D01*
X201862Y362721D01*
X201499Y362589D01*
X201139Y362447D01*
X200783Y362297D01*
X200430Y362138D01*
X200082Y361971D01*
X199737Y361796D01*
X199397Y361612D01*
X199062Y361420D01*
X198731Y361220D01*
X198405Y361012D01*
X198084Y360796D01*
X197769Y360573D01*
X197459Y360342D01*
X197155Y360104D01*
X196856Y359858D01*
X196564Y359605D01*
X196277Y359345D01*
X195998Y359079D01*
X195724Y358805D01*
X195458Y358526D01*
X195198Y358239D01*
X194945Y357947D01*
X194699Y357648D01*
X194461Y357344D01*
X194230Y357034D01*
X194007Y356719D01*
X193791Y356398D01*
X193583Y356072D01*
X193383Y355741D01*
X193191Y355406D01*
X193007Y355066D01*
X192832Y354721D01*
X192665Y354373D01*
X192506Y354020D01*
X192356Y353664D01*
X192214Y353304D01*
X192082Y352941D01*
X191958Y352575D01*
X191843Y352206D01*
X191737Y351834D01*
X191640Y351460D01*
X191552Y351084D01*
X191473Y350705D01*
X191403Y350325D01*
X191343Y349943D01*
X191292Y349560D01*
X191250Y349176D01*
X191217Y348791D01*
X191194Y348405D01*
X191180Y348019D01*
X191175Y347632D01*
X207171Y363628D02*
X207575Y363623D01*
X207979Y363608D01*
X208382Y363584D01*
X208785Y363550D01*
X209187Y363506D01*
X209587Y363453D01*
X209986Y363389D01*
X210384Y363316D01*
X210779Y363234D01*
X211173Y363142D01*
X211564Y363041D01*
X211953Y362930D01*
X212338Y362810D01*
X212721Y362680D01*
X213101Y362541D01*
X213477Y362393D01*
X213849Y362237D01*
X214218Y362071D01*
X214582Y361896D01*
X214942Y361713D01*
X215298Y361520D01*
X215648Y361320D01*
X215994Y361111D01*
X216335Y360893D01*
X216670Y360668D01*
X217000Y360434D01*
X217324Y360193D01*
X217642Y359944D01*
X217954Y359687D01*
X218260Y359423D01*
X218559Y359151D01*
X218852Y358872D01*
X219137Y358587D01*
X219416Y358294D01*
X219688Y357995D01*
X219952Y357689D01*
X220209Y357377D01*
X220458Y357059D01*
X220699Y356735D01*
X220933Y356405D01*
X221158Y356070D01*
X221376Y355729D01*
X221585Y355383D01*
X221785Y355033D01*
X221978Y354677D01*
X222161Y354317D01*
X222336Y353953D01*
X222502Y353584D01*
X222658Y353212D01*
X222806Y352836D01*
X222945Y352456D01*
X223075Y352073D01*
X223195Y351688D01*
X223306Y351299D01*
X223407Y350908D01*
X223499Y350514D01*
X223581Y350119D01*
X223654Y349721D01*
X223718Y349322D01*
X223771Y348922D01*
X223815Y348520D01*
X223849Y348117D01*
X223873Y347714D01*
X223888Y347310D01*
X223893Y346906D01*
X223893Y306554D01*
X223893Y297102D01*
X223888Y296698D01*
X223873Y296294D01*
X223849Y295891D01*
X223815Y295488D01*
X223771Y295086D01*
X223718Y294686D01*
X223654Y294287D01*
X223581Y293889D01*
X223499Y293494D01*
X223407Y293100D01*
X223306Y292709D01*
X223195Y292320D01*
X223075Y291935D01*
X222945Y291552D01*
X222806Y291172D01*
X222658Y290796D01*
X222502Y290424D01*
X222336Y290055D01*
X222161Y289691D01*
X221978Y289331D01*
X221785Y288975D01*
X221585Y288625D01*
X221376Y288279D01*
X221158Y287938D01*
X220933Y287603D01*
X220699Y287273D01*
X220458Y286949D01*
X220209Y286631D01*
X219952Y286319D01*
X219688Y286013D01*
X219416Y285714D01*
X219137Y285421D01*
X218852Y285136D01*
X218559Y284857D01*
X218260Y284585D01*
X217954Y284321D01*
X217642Y284064D01*
X217324Y283815D01*
X217000Y283574D01*
X216670Y283340D01*
X216335Y283115D01*
X215994Y282897D01*
X215648Y282688D01*
X215298Y282488D01*
X214942Y282295D01*
X214582Y282112D01*
X214218Y281937D01*
X213849Y281771D01*
X213477Y281615D01*
X213101Y281467D01*
X212721Y281328D01*
X212338Y281198D01*
X211953Y281078D01*
X211564Y280967D01*
X211173Y280866D01*
X210779Y280774D01*
X210384Y280692D01*
X209986Y280619D01*
X209587Y280555D01*
X209187Y280502D01*
X208785Y280458D01*
X208382Y280424D01*
X207979Y280400D01*
X207575Y280385D01*
X207171Y280380D01*
X206784Y280385D01*
X206398Y280399D01*
X206012Y280422D01*
X205627Y280455D01*
X205243Y280497D01*
X204860Y280548D01*
X204478Y280608D01*
X204098Y280678D01*
X203719Y280757D01*
X203343Y280845D01*
X202969Y280942D01*
X202597Y281048D01*
X202228Y281163D01*
X201862Y281287D01*
X201499Y281419D01*
X201139Y281561D01*
X200783Y281711D01*
X200430Y281870D01*
X200082Y282037D01*
X199737Y282212D01*
X199397Y282396D01*
X199062Y282588D01*
X198731Y282788D01*
X198405Y282996D01*
X198084Y283212D01*
X197769Y283435D01*
X197459Y283666D01*
X197155Y283904D01*
X196856Y284150D01*
X196564Y284403D01*
X196277Y284663D01*
X195998Y284929D01*
X195724Y285203D01*
X195458Y285482D01*
X195198Y285769D01*
X194945Y286061D01*
X194699Y286360D01*
X194461Y286664D01*
X194230Y286974D01*
X194007Y287289D01*
X193791Y287610D01*
X193583Y287936D01*
X193383Y288267D01*
X193191Y288602D01*
X193007Y288942D01*
X192832Y289287D01*
X192665Y289635D01*
X192506Y289988D01*
X192356Y290344D01*
X192214Y290704D01*
X192082Y291067D01*
X191958Y291433D01*
X191843Y291802D01*
X191737Y292174D01*
X191640Y292548D01*
X191552Y292924D01*
X191473Y293303D01*
X191403Y293683D01*
X191343Y294065D01*
X191292Y294448D01*
X191250Y294832D01*
X191217Y295217D01*
X191194Y295603D01*
X191180Y295989D01*
X191175Y296376D01*
X191175Y347632D01*
X89387Y345088D02*
X89387Y303282D01*
X107200Y324004D02*
X89387Y345088D01*
X107200Y324004D02*
X89387Y302919D01*
X90841Y265475D02*
X225711Y265475D01*
X90841Y265475D02*
X90689Y265477D01*
X90537Y265483D01*
X90385Y265493D01*
X90233Y265507D01*
X90082Y265525D01*
X89931Y265547D01*
X89781Y265572D01*
X89632Y265602D01*
X89483Y265636D01*
X89336Y265673D01*
X89189Y265715D01*
X89044Y265760D01*
X88900Y265809D01*
X88757Y265861D01*
X88615Y265918D01*
X88475Y265978D01*
X88337Y266042D01*
X88201Y266109D01*
X88066Y266180D01*
X87933Y266254D01*
X87802Y266332D01*
X87673Y266413D01*
X87547Y266498D01*
X87422Y266586D01*
X87300Y266677D01*
X87181Y266771D01*
X87064Y266868D01*
X86949Y266969D01*
X86838Y267072D01*
X86728Y267178D01*
X86622Y267288D01*
X86519Y267399D01*
X86418Y267514D01*
X86321Y267631D01*
X86227Y267750D01*
X86136Y267872D01*
X86048Y267997D01*
X85963Y268123D01*
X85882Y268252D01*
X85804Y268383D01*
X85730Y268516D01*
X85659Y268651D01*
X85592Y268787D01*
X85528Y268925D01*
X85468Y269065D01*
X85411Y269207D01*
X85359Y269350D01*
X85310Y269494D01*
X85265Y269639D01*
X85223Y269786D01*
X85186Y269933D01*
X85152Y270082D01*
X85122Y270231D01*
X85097Y270381D01*
X85075Y270532D01*
X85057Y270683D01*
X85043Y270835D01*
X85033Y270987D01*
X85027Y271139D01*
X85025Y271291D01*
X85025Y317096D01*
X85025Y386895D01*
X103928Y405798D01*
X225711Y405798D01*
X225711Y407615D01*
X225711Y411978D01*
X101384Y411978D01*
X79208Y389802D01*
X79208Y270928D01*
X79211Y270664D01*
X79221Y270401D01*
X79237Y270138D01*
X79259Y269875D01*
X79288Y269613D01*
X79322Y269352D01*
X79364Y269092D01*
X79411Y268833D01*
X79465Y268575D01*
X79525Y268318D01*
X79591Y268063D01*
X79663Y267809D01*
X79742Y267558D01*
X79826Y267308D01*
X79917Y267061D01*
X80013Y266815D01*
X80115Y266573D01*
X80224Y266332D01*
X80338Y266095D01*
X80457Y265860D01*
X80583Y265628D01*
X80713Y265399D01*
X80850Y265174D01*
X80991Y264951D01*
X81139Y264733D01*
X81291Y264518D01*
X81448Y264306D01*
X81611Y264099D01*
X81778Y263895D01*
X81951Y263696D01*
X82128Y263501D01*
X82310Y263310D01*
X82496Y263124D01*
X82687Y262942D01*
X82882Y262765D01*
X83081Y262592D01*
X83285Y262425D01*
X83492Y262262D01*
X83704Y262105D01*
X83919Y261953D01*
X84137Y261805D01*
X84360Y261664D01*
X84585Y261527D01*
X84814Y261397D01*
X85046Y261271D01*
X85281Y261152D01*
X85518Y261038D01*
X85759Y260929D01*
X86001Y260827D01*
X86247Y260731D01*
X86494Y260640D01*
X86744Y260556D01*
X86995Y260477D01*
X87249Y260405D01*
X87504Y260339D01*
X87761Y260279D01*
X88019Y260225D01*
X88278Y260178D01*
X88538Y260136D01*
X88799Y260102D01*
X89061Y260073D01*
X89324Y260051D01*
X89587Y260035D01*
X89850Y260025D01*
X90114Y260022D01*
X193357Y260022D01*
X225711Y260022D01*
X225711Y265475D01*
X148279Y297830D02*
X148279Y346542D01*
X148274Y346964D01*
X148259Y347385D01*
X148233Y347806D01*
X148198Y348226D01*
X148152Y348645D01*
X148096Y349063D01*
X148030Y349480D01*
X147954Y349895D01*
X147868Y350307D01*
X147772Y350718D01*
X147666Y351126D01*
X147550Y351532D01*
X147425Y351934D01*
X147290Y352334D01*
X147145Y352730D01*
X146991Y353122D01*
X146827Y353511D01*
X146654Y353895D01*
X146472Y354276D01*
X146280Y354651D01*
X146080Y355022D01*
X145870Y355388D01*
X145652Y355749D01*
X145425Y356105D01*
X145190Y356455D01*
X144946Y356799D01*
X144694Y357137D01*
X144434Y357469D01*
X144166Y357794D01*
X143891Y358113D01*
X143607Y358426D01*
X143316Y358731D01*
X143018Y359029D01*
X142713Y359320D01*
X142400Y359604D01*
X142081Y359879D01*
X141756Y360147D01*
X141424Y360407D01*
X141086Y360659D01*
X140742Y360903D01*
X140392Y361138D01*
X140036Y361365D01*
X139675Y361583D01*
X139309Y361793D01*
X138938Y361993D01*
X138563Y362185D01*
X138182Y362367D01*
X137798Y362540D01*
X137409Y362704D01*
X137017Y362858D01*
X136621Y363003D01*
X136221Y363138D01*
X135819Y363263D01*
X135413Y363379D01*
X135005Y363485D01*
X134594Y363581D01*
X134182Y363667D01*
X133767Y363743D01*
X133350Y363809D01*
X132932Y363865D01*
X132513Y363911D01*
X132093Y363946D01*
X131672Y363972D01*
X131251Y363987D01*
X130829Y363992D01*
X130443Y363987D01*
X130056Y363973D01*
X129670Y363950D01*
X129285Y363917D01*
X128901Y363875D01*
X128518Y363824D01*
X128136Y363764D01*
X127756Y363694D01*
X127378Y363615D01*
X127001Y363527D01*
X126627Y363430D01*
X126255Y363324D01*
X125886Y363209D01*
X125520Y363085D01*
X125157Y362953D01*
X124797Y362811D01*
X124441Y362661D01*
X124089Y362502D01*
X123740Y362335D01*
X123396Y362160D01*
X123056Y361976D01*
X122720Y361784D01*
X122389Y361584D01*
X122064Y361376D01*
X121743Y361161D01*
X121427Y360937D01*
X121117Y360706D01*
X120813Y360468D01*
X120515Y360222D01*
X120222Y359969D01*
X119936Y359710D01*
X119656Y359443D01*
X119383Y359170D01*
X119116Y358890D01*
X118857Y358604D01*
X118604Y358311D01*
X118358Y358013D01*
X118120Y357709D01*
X117889Y357399D01*
X117665Y357083D01*
X117450Y356762D01*
X117242Y356437D01*
X117042Y356106D01*
X116850Y355770D01*
X116666Y355430D01*
X116491Y355086D01*
X116324Y354737D01*
X116165Y354385D01*
X116015Y354029D01*
X115873Y353669D01*
X115741Y353306D01*
X115617Y352940D01*
X115502Y352571D01*
X115396Y352199D01*
X115299Y351825D01*
X115211Y351448D01*
X115132Y351070D01*
X115062Y350690D01*
X115002Y350308D01*
X114951Y349925D01*
X114909Y349541D01*
X114876Y349156D01*
X114853Y348770D01*
X114839Y348383D01*
X114834Y347997D01*
X114834Y296375D01*
X114839Y295989D01*
X114853Y295602D01*
X114876Y295216D01*
X114909Y294831D01*
X114951Y294447D01*
X115002Y294064D01*
X115062Y293682D01*
X115132Y293302D01*
X115211Y292924D01*
X115299Y292547D01*
X115396Y292173D01*
X115502Y291801D01*
X115617Y291432D01*
X115741Y291066D01*
X115873Y290703D01*
X116015Y290343D01*
X116165Y289987D01*
X116324Y289635D01*
X116491Y289286D01*
X116666Y288942D01*
X116850Y288602D01*
X117042Y288266D01*
X117242Y287935D01*
X117450Y287610D01*
X117665Y287289D01*
X117889Y286973D01*
X118120Y286663D01*
X118358Y286359D01*
X118604Y286061D01*
X118857Y285768D01*
X119116Y285482D01*
X119383Y285202D01*
X119656Y284929D01*
X119936Y284662D01*
X120222Y284403D01*
X120515Y284150D01*
X120813Y283904D01*
X121117Y283666D01*
X121427Y283435D01*
X121743Y283211D01*
X122064Y282996D01*
X122389Y282788D01*
X122720Y282588D01*
X123056Y282396D01*
X123396Y282212D01*
X123740Y282037D01*
X124089Y281870D01*
X124441Y281711D01*
X124797Y281561D01*
X125157Y281419D01*
X125520Y281287D01*
X125886Y281163D01*
X126255Y281048D01*
X126627Y280942D01*
X127001Y280845D01*
X127378Y280757D01*
X127756Y280678D01*
X128136Y280608D01*
X128518Y280548D01*
X128901Y280497D01*
X129285Y280455D01*
X129670Y280422D01*
X130056Y280399D01*
X130443Y280385D01*
X130829Y280380D01*
X131251Y280385D01*
X131672Y280400D01*
X132093Y280426D01*
X132513Y280461D01*
X132932Y280507D01*
X133350Y280563D01*
X133767Y280629D01*
X134182Y280705D01*
X134594Y280791D01*
X135005Y280887D01*
X135413Y280993D01*
X135819Y281109D01*
X136221Y281234D01*
X136621Y281369D01*
X137017Y281514D01*
X137409Y281668D01*
X137798Y281832D01*
X138182Y282005D01*
X138563Y282187D01*
X138938Y282379D01*
X139309Y282579D01*
X139675Y282789D01*
X140036Y283007D01*
X140392Y283234D01*
X140742Y283469D01*
X141086Y283713D01*
X141424Y283965D01*
X141756Y284225D01*
X142081Y284493D01*
X142400Y284768D01*
X142713Y285052D01*
X143018Y285343D01*
X143316Y285641D01*
X143607Y285946D01*
X143891Y286259D01*
X144166Y286578D01*
X144434Y286903D01*
X144694Y287235D01*
X144946Y287573D01*
X145190Y287917D01*
X145425Y288267D01*
X145652Y288623D01*
X145870Y288984D01*
X146080Y289350D01*
X146280Y289721D01*
X146472Y290096D01*
X146654Y290477D01*
X146827Y290861D01*
X146991Y291250D01*
X147145Y291642D01*
X147290Y292038D01*
X147425Y292438D01*
X147550Y292840D01*
X147666Y293246D01*
X147772Y293654D01*
X147868Y294065D01*
X147954Y294477D01*
X148030Y294892D01*
X148096Y295309D01*
X148152Y295727D01*
X148198Y296146D01*
X148233Y296566D01*
X148259Y296987D01*
X148274Y297408D01*
X148279Y297830D01*
X32676Y413068D02*
X2503Y382895D01*
X32676Y413068D02*
X50853Y413068D01*
X50853Y421793D01*
X35584Y412341D02*
X6139Y382532D01*
X35584Y412341D02*
X35948Y412341D01*
X35948Y406888D01*
X51216Y406888D01*
X51216Y400345D01*
X77027Y400345D01*
X53761Y400708D02*
X53761Y408342D01*
X41037Y408342D01*
X39220Y410160D01*
X39220Y412705D01*
X53761Y411614D02*
X53761Y421430D01*
X53761Y411614D02*
X77027Y411614D01*
X77027Y260022D01*
X55942Y260022D01*
X53761Y257841D01*
X53761Y250207D01*
X57760Y271292D02*
X76663Y271292D01*
X57760Y271292D02*
X51216Y264748D01*
X36312Y264748D01*
X35948Y264384D01*
X35948Y259295D01*
X58123Y262203D02*
X66848Y270928D01*
X58123Y262203D02*
X39583Y262203D01*
X39583Y259295D01*
X51216Y264748D02*
X60305Y264748D01*
X6139Y263657D02*
X6139Y285106D01*
X6139Y263657D02*
X10864Y258932D01*
X50853Y258932D01*
X50853Y250207D01*
X5775Y263658D02*
X2503Y263658D01*
X73392Y411978D02*
X73392Y421430D01*
X57396Y421430D02*
X57396Y411978D01*
X39947Y412705D02*
X39947Y409797D01*
X195174Y350541D02*
X222439Y352722D01*
X195174Y350541D02*
X195174Y344725D01*
X223530Y342544D01*
X223166Y327639D02*
X195538Y325458D01*
X195538Y318914D01*
X223530Y317096D01*
X223530Y302192D02*
X195174Y300011D01*
X195174Y293831D01*
X222439Y291649D01*
X142826Y350905D02*
X115925Y352722D01*
X142826Y350905D02*
X142826Y344725D01*
X115198Y342544D01*
X115198Y327275D02*
X142826Y325458D01*
X142826Y319278D01*
X115198Y317096D01*
X115198Y302192D02*
X142826Y300011D01*
X142826Y293831D01*
X115925Y291649D01*
X194811Y357085D02*
X219894Y357085D01*
X223530Y338181D02*
X191902Y338181D01*
X191539Y332001D02*
X223166Y332001D01*
X223530Y312734D02*
X191902Y312734D01*
X191539Y306554D02*
X223893Y306554D01*
X220258Y287651D02*
X194084Y287651D01*
X144280Y287651D02*
X117742Y287651D01*
X115198Y306554D02*
X147915Y306554D01*
X147915Y312734D02*
X115198Y312734D01*
X115561Y331638D02*
X147915Y331638D01*
X147915Y338181D02*
X115561Y338181D01*
X118106Y357085D02*
X143916Y357085D01*
X220985Y406525D02*
X225347Y411251D01*
X220985Y406525D02*
X215895Y411614D01*
X214441Y411614D02*
X209715Y406525D01*
X204626Y411614D01*
X203172Y411614D02*
X198082Y406525D01*
X198082Y406888D02*
X193357Y411614D01*
X221712Y411614D02*
X225711Y407615D01*
X219894Y411614D02*
X215168Y406525D01*
X210079Y411614D01*
X208625Y411614D02*
X203899Y406525D01*
X198809Y411251D01*
X197719Y411251D02*
X192629Y406525D01*
X187540Y411614D01*
X186086Y411614D02*
X181360Y406525D01*
X176271Y411251D01*
X187177Y406525D02*
X191902Y411614D01*
X187177Y406525D02*
X182451Y411251D01*
X180269Y411614D02*
X175544Y406525D01*
X170818Y411614D01*
X174816Y411614D02*
X169727Y406525D01*
X165001Y411251D01*
X169364Y411251D02*
X164274Y406525D01*
X159548Y411251D01*
X163547Y411614D02*
X158458Y406525D01*
X153368Y411614D01*
X158094Y411614D02*
X153005Y406525D01*
X147915Y411614D01*
X151914Y411614D02*
X147188Y406525D01*
X142099Y411614D01*
X146825Y411614D02*
X141735Y406525D01*
X136646Y411614D01*
X141008Y411614D02*
X135919Y406525D01*
X131193Y411251D01*
X135192Y411251D02*
X130466Y406525D01*
X125740Y411251D01*
X129739Y411251D02*
X124649Y406525D01*
X119923Y411251D01*
X124649Y411251D02*
X119196Y406161D01*
X113743Y411614D01*
X118469Y411614D02*
X113380Y406525D01*
X108290Y411614D01*
X112653Y411614D02*
X107563Y406525D01*
X102838Y411614D01*
X107200Y411614D02*
X79572Y383986D01*
X103201Y405434D02*
X99202Y409433D01*
X96658Y406525D02*
X100293Y402890D01*
X97385Y399618D02*
X93750Y403253D01*
X93749Y403253D01*
X91205Y400708D02*
X94840Y397073D01*
X91932Y394165D02*
X88297Y397800D01*
X88296Y397800D01*
X85025Y395255D02*
X89023Y391257D01*
X86115Y388712D02*
X82480Y392347D01*
X79572Y389075D02*
X84661Y383986D01*
X79572Y383622D02*
X84661Y378533D01*
X84661Y383622D02*
X79572Y378533D01*
X79572Y377806D02*
X84661Y372717D01*
X79572Y373080D02*
X84661Y378169D01*
X79572Y372353D02*
X84661Y367264D01*
X84661Y372353D02*
X79572Y367264D01*
X79572Y366900D02*
X84661Y361811D01*
X84661Y366537D02*
X79572Y361448D01*
X79572Y361447D01*
X79935Y361084D02*
X84661Y356358D01*
X84661Y361084D02*
X79572Y355995D01*
X79572Y355994D01*
X79572Y355631D02*
X84661Y350542D01*
X84661Y350541D01*
X79572Y350542D02*
X84661Y355631D01*
X79572Y350542D02*
X79572Y350541D01*
X79572Y350178D02*
X84661Y345089D01*
X84661Y345088D01*
X84661Y349451D02*
X79572Y344362D01*
X79572Y344361D01*
X79935Y344361D02*
X84661Y339635D01*
X84661Y343998D02*
X79572Y338909D01*
X79572Y338908D01*
X79935Y338545D02*
X84661Y333819D01*
X84661Y338545D02*
X79572Y333456D01*
X79572Y333455D01*
X79935Y332728D02*
X84661Y328002D01*
X84661Y332728D02*
X79572Y327639D01*
X79935Y327275D02*
X84661Y322549D01*
X84661Y326912D02*
X79572Y321823D01*
X79572Y321822D01*
X79935Y321822D02*
X84661Y317096D01*
X85025Y317096D01*
X84661Y321459D02*
X79572Y316370D01*
X79572Y316369D01*
X79572Y316006D02*
X84661Y310917D01*
X84661Y310916D01*
X84661Y315642D02*
X79572Y310553D01*
X84661Y305464D01*
X84661Y305463D01*
X84661Y310189D02*
X79572Y305100D01*
X79572Y304736D02*
X84661Y299647D01*
X84661Y304373D02*
X79572Y299284D01*
X79572Y299283D01*
X79572Y298920D02*
X84661Y293831D01*
X84661Y298556D02*
X79572Y293467D01*
X84661Y293103D02*
X79572Y288014D01*
X79935Y293103D02*
X84660Y288378D01*
X84661Y288378D01*
X84661Y287651D02*
X79572Y282562D01*
X79572Y282561D01*
X84661Y282562D02*
X79572Y287651D01*
X84661Y282562D02*
X84661Y282561D01*
X84661Y281834D02*
X79572Y276745D01*
X84661Y277109D02*
X79572Y282198D01*
X84661Y277109D02*
X84661Y277108D01*
X79935Y276018D02*
X84661Y271292D01*
X84661Y276018D02*
X79572Y270929D01*
X79572Y270928D01*
X90114Y260386D01*
X86479Y261113D02*
X90478Y265112D01*
X86842Y266929D02*
X82843Y262930D01*
X80662Y266566D02*
X84661Y270565D01*
X90841Y265112D02*
X95567Y260386D01*
X91568Y260386D02*
X96294Y265112D01*
X96658Y265112D02*
X101383Y260387D01*
X101383Y260386D01*
X97385Y260387D02*
X102110Y265112D01*
X97385Y260387D02*
X97385Y260386D01*
X102110Y265112D02*
X106836Y260386D01*
X102838Y260386D02*
X107563Y265111D01*
X107563Y265112D01*
X112289Y260386D01*
X108654Y260386D02*
X113380Y265112D01*
X118106Y260386D01*
X114107Y260386D02*
X118833Y265112D01*
X123559Y260386D01*
X119923Y260386D02*
X124649Y265112D01*
X129375Y260386D01*
X125376Y260386D02*
X130102Y265112D01*
X134828Y260386D01*
X131193Y260386D02*
X135919Y265112D01*
X140645Y260386D01*
X136646Y260386D02*
X141372Y265112D01*
X146098Y260386D01*
X142099Y260386D02*
X146825Y265112D01*
X151551Y260386D01*
X148279Y260386D02*
X153005Y265112D01*
X157731Y260386D01*
X153732Y260386D02*
X158458Y265112D01*
X163184Y260386D01*
X159548Y260386D02*
X164274Y265112D01*
X169000Y260386D01*
X165001Y260386D02*
X169727Y265112D01*
X174453Y260386D01*
X170818Y260386D02*
X175544Y265112D01*
X180269Y260387D01*
X180269Y260386D01*
X176271Y260386D02*
X180996Y265111D01*
X180996Y265112D01*
X185722Y260386D01*
X182087Y260386D02*
X186813Y265112D01*
X191539Y260386D01*
X187540Y260386D02*
X192266Y265112D01*
X196992Y260386D01*
X193357Y260022D02*
X198446Y265111D01*
X198446Y265112D01*
X203172Y260386D01*
X199173Y260386D02*
X203899Y265112D01*
X208625Y260386D01*
X204626Y260386D02*
X209352Y265112D01*
X214078Y260386D01*
X210442Y260386D02*
X215168Y265112D01*
X219894Y260386D01*
X215895Y260386D02*
X220621Y265112D01*
X225347Y260386D01*
X221712Y260386D02*
X225347Y264021D01*
X105019Y269838D02*
X97385Y269838D01*
X97306Y269840D01*
X97227Y269846D01*
X97149Y269855D01*
X97071Y269868D01*
X96993Y269886D01*
X96917Y269906D01*
X96842Y269931D01*
X96768Y269959D01*
X96696Y269990D01*
X96625Y270025D01*
X96556Y270064D01*
X96488Y270106D01*
X96423Y270150D01*
X96361Y270198D01*
X96300Y270249D01*
X96242Y270303D01*
X96187Y270360D01*
X96135Y270419D01*
X96085Y270481D01*
X96039Y270545D01*
X95995Y270611D01*
X95955Y270679D01*
X95918Y270749D01*
X95885Y270821D01*
X95855Y270894D01*
X95829Y270968D01*
X95806Y271044D01*
X95788Y271121D01*
X95772Y271199D01*
X95761Y271277D01*
X95753Y271355D01*
X95749Y271434D01*
X95749Y271514D01*
X95753Y271593D01*
X95761Y271671D01*
X95772Y271749D01*
X95788Y271827D01*
X95806Y271904D01*
X95829Y271980D01*
X95855Y272054D01*
X95885Y272127D01*
X95918Y272199D01*
X95955Y272269D01*
X95995Y272337D01*
X96039Y272403D01*
X96085Y272467D01*
X96135Y272529D01*
X96187Y272588D01*
X96242Y272645D01*
X96300Y272699D01*
X96361Y272750D01*
X96423Y272798D01*
X96488Y272842D01*
X96556Y272884D01*
X96625Y272923D01*
X96696Y272958D01*
X96768Y272989D01*
X96842Y273017D01*
X96917Y273042D01*
X96993Y273062D01*
X97071Y273080D01*
X97149Y273093D01*
X97227Y273102D01*
X97306Y273108D01*
X97385Y273110D01*
X97385Y273109D02*
X105019Y273109D01*
X105019Y273110D02*
X105098Y273108D01*
X105177Y273102D01*
X105255Y273093D01*
X105333Y273080D01*
X105411Y273062D01*
X105487Y273042D01*
X105562Y273017D01*
X105636Y272989D01*
X105708Y272958D01*
X105779Y272923D01*
X105848Y272884D01*
X105916Y272842D01*
X105981Y272798D01*
X106043Y272750D01*
X106104Y272699D01*
X106162Y272645D01*
X106217Y272588D01*
X106269Y272529D01*
X106319Y272467D01*
X106365Y272403D01*
X106409Y272337D01*
X106449Y272269D01*
X106486Y272199D01*
X106519Y272127D01*
X106549Y272054D01*
X106575Y271980D01*
X106598Y271904D01*
X106616Y271827D01*
X106632Y271749D01*
X106643Y271671D01*
X106651Y271593D01*
X106655Y271514D01*
X106655Y271434D01*
X106651Y271355D01*
X106643Y271277D01*
X106632Y271199D01*
X106616Y271121D01*
X106598Y271044D01*
X106575Y270968D01*
X106549Y270894D01*
X106519Y270821D01*
X106486Y270749D01*
X106449Y270679D01*
X106409Y270611D01*
X106365Y270545D01*
X106319Y270481D01*
X106269Y270419D01*
X106217Y270360D01*
X106162Y270303D01*
X106104Y270249D01*
X106043Y270198D01*
X105981Y270150D01*
X105916Y270106D01*
X105848Y270064D01*
X105779Y270025D01*
X105708Y269990D01*
X105636Y269959D01*
X105562Y269931D01*
X105487Y269906D01*
X105411Y269886D01*
X105333Y269868D01*
X105255Y269855D01*
X105177Y269846D01*
X105098Y269840D01*
X105019Y269838D01*
X106473Y280380D02*
X95930Y280380D01*
X106473Y280380D02*
X106473Y282198D01*
X106474Y282199D02*
X106472Y282282D01*
X106466Y282366D01*
X106456Y282450D01*
X106443Y282533D01*
X106426Y282615D01*
X106404Y282696D01*
X106380Y282776D01*
X106351Y282855D01*
X106319Y282933D01*
X106283Y283009D01*
X106244Y283083D01*
X106201Y283155D01*
X106156Y283226D01*
X106106Y283294D01*
X106054Y283360D01*
X105999Y283423D01*
X105941Y283484D01*
X105880Y283542D01*
X105817Y283597D01*
X105751Y283649D01*
X105683Y283698D01*
X105613Y283744D01*
X105540Y283786D01*
X105466Y283826D01*
X105390Y283861D01*
X105312Y283893D01*
X105233Y283922D01*
X105153Y283947D01*
X105072Y283968D01*
X104990Y283985D01*
X104907Y283999D01*
X104823Y284008D01*
X104739Y284014D01*
X104655Y284016D01*
X104655Y284015D02*
X102474Y284015D01*
X102398Y284013D01*
X102322Y284007D01*
X102247Y283997D01*
X102172Y283983D01*
X102098Y283965D01*
X102025Y283944D01*
X101953Y283918D01*
X101883Y283889D01*
X101814Y283857D01*
X101747Y283820D01*
X101682Y283780D01*
X101619Y283737D01*
X101559Y283691D01*
X101501Y283642D01*
X101446Y283589D01*
X101393Y283534D01*
X101344Y283476D01*
X101298Y283416D01*
X101255Y283353D01*
X101215Y283288D01*
X101178Y283221D01*
X101146Y283152D01*
X101117Y283082D01*
X101091Y283010D01*
X101070Y282937D01*
X101052Y282863D01*
X101038Y282788D01*
X101028Y282713D01*
X101022Y282637D01*
X101020Y282561D01*
X101020Y280743D01*
X106473Y290922D02*
X106473Y294558D01*
X106473Y290922D02*
X95930Y290922D01*
X95930Y294558D01*
X101020Y293831D02*
X101020Y291286D01*
X95930Y301465D02*
X106473Y301465D01*
X95930Y305100D01*
X106473Y305100D01*
X105019Y342544D02*
X97385Y342544D01*
X97306Y342546D01*
X97227Y342552D01*
X97149Y342561D01*
X97071Y342574D01*
X96993Y342592D01*
X96917Y342612D01*
X96842Y342637D01*
X96768Y342665D01*
X96696Y342696D01*
X96625Y342731D01*
X96556Y342770D01*
X96488Y342812D01*
X96423Y342856D01*
X96361Y342904D01*
X96300Y342955D01*
X96242Y343009D01*
X96187Y343066D01*
X96135Y343125D01*
X96085Y343187D01*
X96039Y343251D01*
X95995Y343317D01*
X95955Y343385D01*
X95918Y343455D01*
X95885Y343527D01*
X95855Y343600D01*
X95829Y343674D01*
X95806Y343750D01*
X95788Y343827D01*
X95772Y343905D01*
X95761Y343983D01*
X95753Y344061D01*
X95749Y344140D01*
X95749Y344220D01*
X95753Y344299D01*
X95761Y344377D01*
X95772Y344455D01*
X95788Y344533D01*
X95806Y344610D01*
X95829Y344686D01*
X95855Y344760D01*
X95885Y344833D01*
X95918Y344905D01*
X95955Y344975D01*
X95995Y345043D01*
X96039Y345109D01*
X96085Y345173D01*
X96135Y345235D01*
X96187Y345294D01*
X96242Y345351D01*
X96300Y345405D01*
X96361Y345456D01*
X96423Y345504D01*
X96488Y345548D01*
X96556Y345590D01*
X96625Y345629D01*
X96696Y345664D01*
X96768Y345695D01*
X96842Y345723D01*
X96917Y345748D01*
X96993Y345768D01*
X97071Y345786D01*
X97149Y345799D01*
X97227Y345808D01*
X97306Y345814D01*
X97385Y345816D01*
X97385Y345815D02*
X105019Y345815D01*
X105019Y345816D02*
X105098Y345814D01*
X105177Y345808D01*
X105255Y345799D01*
X105333Y345786D01*
X105411Y345768D01*
X105487Y345748D01*
X105562Y345723D01*
X105636Y345695D01*
X105708Y345664D01*
X105779Y345629D01*
X105848Y345590D01*
X105916Y345548D01*
X105981Y345504D01*
X106043Y345456D01*
X106104Y345405D01*
X106162Y345351D01*
X106217Y345294D01*
X106269Y345235D01*
X106319Y345173D01*
X106365Y345109D01*
X106409Y345043D01*
X106449Y344975D01*
X106486Y344905D01*
X106519Y344833D01*
X106549Y344760D01*
X106575Y344686D01*
X106598Y344610D01*
X106616Y344533D01*
X106632Y344455D01*
X106643Y344377D01*
X106651Y344299D01*
X106655Y344220D01*
X106655Y344140D01*
X106651Y344061D01*
X106643Y343983D01*
X106632Y343905D01*
X106616Y343827D01*
X106598Y343750D01*
X106575Y343674D01*
X106549Y343600D01*
X106519Y343527D01*
X106486Y343455D01*
X106449Y343385D01*
X106409Y343317D01*
X106365Y343251D01*
X106319Y343187D01*
X106269Y343125D01*
X106217Y343066D01*
X106162Y343009D01*
X106104Y342955D01*
X106043Y342904D01*
X105981Y342856D01*
X105916Y342812D01*
X105848Y342770D01*
X105779Y342731D01*
X105708Y342696D01*
X105636Y342665D01*
X105562Y342637D01*
X105487Y342612D01*
X105411Y342592D01*
X105333Y342574D01*
X105255Y342561D01*
X105177Y342552D01*
X105098Y342546D01*
X105019Y342544D01*
X106473Y353086D02*
X95930Y353086D01*
X106473Y353086D02*
X106473Y354904D01*
X106474Y354905D02*
X106472Y354988D01*
X106466Y355072D01*
X106456Y355156D01*
X106443Y355239D01*
X106426Y355321D01*
X106404Y355402D01*
X106380Y355482D01*
X106351Y355561D01*
X106319Y355639D01*
X106283Y355715D01*
X106244Y355789D01*
X106201Y355861D01*
X106156Y355932D01*
X106106Y356000D01*
X106054Y356066D01*
X105999Y356129D01*
X105941Y356190D01*
X105880Y356248D01*
X105817Y356303D01*
X105751Y356355D01*
X105683Y356404D01*
X105613Y356450D01*
X105540Y356492D01*
X105466Y356532D01*
X105390Y356567D01*
X105312Y356599D01*
X105233Y356628D01*
X105153Y356653D01*
X105072Y356674D01*
X104990Y356691D01*
X104907Y356705D01*
X104823Y356714D01*
X104739Y356720D01*
X104655Y356722D01*
X104655Y356721D02*
X102474Y356721D01*
X102398Y356719D01*
X102322Y356713D01*
X102247Y356703D01*
X102172Y356689D01*
X102098Y356671D01*
X102025Y356650D01*
X101953Y356624D01*
X101883Y356595D01*
X101814Y356563D01*
X101747Y356526D01*
X101682Y356486D01*
X101619Y356443D01*
X101559Y356397D01*
X101501Y356348D01*
X101446Y356295D01*
X101393Y356240D01*
X101344Y356182D01*
X101298Y356122D01*
X101255Y356059D01*
X101215Y355994D01*
X101178Y355927D01*
X101146Y355858D01*
X101117Y355788D01*
X101091Y355716D01*
X101070Y355643D01*
X101052Y355569D01*
X101038Y355494D01*
X101028Y355419D01*
X101022Y355343D01*
X101020Y355267D01*
X101020Y353449D01*
X106473Y363628D02*
X106473Y367264D01*
X106473Y363628D02*
X95930Y363628D01*
X95930Y367264D01*
X101020Y366537D02*
X101020Y363992D01*
X95930Y374171D02*
X106473Y374171D01*
X95930Y377806D01*
X106473Y377806D01*
X89750Y341089D02*
X101383Y329456D01*
X104291Y326548D01*
X106472Y324367D01*
X106473Y324367D01*
X104291Y321095D02*
X89750Y335636D01*
X104291Y321095D02*
X104292Y321095D01*
X101747Y317823D02*
X89750Y329820D01*
X89750Y324004D02*
X98839Y314915D01*
X96294Y312007D02*
X89750Y318551D01*
X89750Y313098D02*
X93749Y309099D01*
X91204Y305827D02*
X89750Y307281D01*
X91204Y305827D02*
X91205Y305827D01*
X89750Y306191D02*
X103200Y319641D01*
X103201Y319641D01*
X104291Y326548D02*
X89750Y312007D01*
X104291Y326548D02*
X104292Y326548D01*
X101383Y329456D02*
X89750Y317823D01*
X89750Y323640D02*
X99202Y333092D01*
X96657Y336000D02*
X89750Y329093D01*
X96657Y336000D02*
X96658Y336000D01*
X94113Y339272D02*
X89750Y334909D01*
X89750Y340362D02*
X91568Y342180D01*
X223166Y388348D02*
X220621Y399254D01*
X218440Y388348D01*
X219894Y392711D02*
X221712Y392711D01*
X211533Y388348D02*
X211533Y399254D01*
X208625Y391257D01*
X205717Y399254D01*
X205717Y388348D01*
X199173Y388348D02*
X199173Y399254D01*
X197355Y399254D01*
X197270Y399252D01*
X197185Y399246D01*
X197100Y399236D01*
X197016Y399223D01*
X196933Y399205D01*
X196850Y399184D01*
X196769Y399159D01*
X196689Y399130D01*
X196610Y399097D01*
X196533Y399061D01*
X196458Y399021D01*
X196384Y398978D01*
X196313Y398932D01*
X196244Y398882D01*
X196177Y398829D01*
X196113Y398774D01*
X196051Y398715D01*
X195992Y398653D01*
X195936Y398589D01*
X195883Y398523D01*
X195833Y398454D01*
X195786Y398382D01*
X195743Y398309D01*
X195703Y398234D01*
X195667Y398157D01*
X195634Y398078D01*
X195605Y397998D01*
X195580Y397917D01*
X195558Y397834D01*
X195540Y397751D01*
X195526Y397667D01*
X195516Y397582D01*
X195510Y397497D01*
X195508Y397412D01*
X195510Y397327D01*
X195515Y397242D01*
X195525Y397158D01*
X195538Y397073D01*
X195538Y395619D01*
X195540Y395534D01*
X195546Y395449D01*
X195556Y395364D01*
X195569Y395280D01*
X195587Y395197D01*
X195608Y395114D01*
X195633Y395033D01*
X195662Y394953D01*
X195695Y394874D01*
X195731Y394797D01*
X195771Y394722D01*
X195814Y394648D01*
X195860Y394577D01*
X195910Y394507D01*
X195963Y394441D01*
X196018Y394376D01*
X196077Y394314D01*
X196139Y394256D01*
X196203Y394199D01*
X196269Y394146D01*
X196338Y394097D01*
X196410Y394050D01*
X196483Y394007D01*
X196558Y393967D01*
X196635Y393930D01*
X196714Y393898D01*
X196794Y393868D01*
X196875Y393843D01*
X196958Y393821D01*
X197041Y393803D01*
X197125Y393790D01*
X197210Y393779D01*
X197295Y393773D01*
X197380Y393771D01*
X197465Y393773D01*
X197550Y393778D01*
X197635Y393788D01*
X197719Y393801D01*
X198809Y393801D01*
X188994Y393801D02*
X188994Y388348D01*
X188994Y393801D02*
X188994Y399254D01*
X185722Y393801D02*
X185722Y388348D01*
X185722Y393801D02*
X185722Y399254D01*
X185722Y393801D02*
X188994Y393801D01*
X179179Y388348D02*
X175544Y388348D01*
X179179Y388348D02*
X179179Y399254D01*
X175544Y399254D01*
X169364Y399254D02*
X169364Y388348D01*
X165728Y388348D02*
X169364Y399254D01*
X165728Y399254D02*
X165728Y388348D01*
X159185Y390166D02*
X159185Y397800D01*
X159183Y397879D01*
X159177Y397958D01*
X159168Y398036D01*
X159155Y398114D01*
X159137Y398192D01*
X159117Y398268D01*
X159092Y398343D01*
X159064Y398417D01*
X159033Y398489D01*
X158998Y398560D01*
X158959Y398629D01*
X158917Y398697D01*
X158873Y398762D01*
X158825Y398824D01*
X158774Y398885D01*
X158720Y398943D01*
X158663Y398998D01*
X158604Y399050D01*
X158542Y399100D01*
X158478Y399146D01*
X158412Y399190D01*
X158344Y399230D01*
X158274Y399267D01*
X158202Y399300D01*
X158129Y399330D01*
X158055Y399356D01*
X157979Y399379D01*
X157902Y399397D01*
X157824Y399413D01*
X157746Y399424D01*
X157668Y399432D01*
X157589Y399436D01*
X157509Y399436D01*
X157430Y399432D01*
X157352Y399424D01*
X157274Y399413D01*
X157196Y399397D01*
X157119Y399379D01*
X157043Y399356D01*
X156969Y399330D01*
X156896Y399300D01*
X156824Y399267D01*
X156754Y399230D01*
X156686Y399190D01*
X156620Y399146D01*
X156556Y399100D01*
X156494Y399050D01*
X156435Y398998D01*
X156378Y398943D01*
X156324Y398885D01*
X156273Y398824D01*
X156225Y398762D01*
X156181Y398697D01*
X156139Y398629D01*
X156100Y398560D01*
X156065Y398489D01*
X156034Y398417D01*
X156006Y398343D01*
X155981Y398268D01*
X155961Y398192D01*
X155943Y398114D01*
X155930Y398036D01*
X155921Y397958D01*
X155915Y397879D01*
X155913Y397800D01*
X155913Y390166D01*
X155915Y390087D01*
X155921Y390008D01*
X155930Y389930D01*
X155943Y389852D01*
X155961Y389774D01*
X155981Y389698D01*
X156006Y389623D01*
X156034Y389549D01*
X156065Y389477D01*
X156100Y389406D01*
X156139Y389337D01*
X156181Y389269D01*
X156225Y389204D01*
X156273Y389142D01*
X156324Y389081D01*
X156378Y389023D01*
X156435Y388968D01*
X156494Y388916D01*
X156556Y388866D01*
X156620Y388820D01*
X156686Y388776D01*
X156754Y388736D01*
X156824Y388699D01*
X156896Y388666D01*
X156969Y388636D01*
X157043Y388610D01*
X157119Y388587D01*
X157196Y388569D01*
X157274Y388553D01*
X157352Y388542D01*
X157430Y388534D01*
X157509Y388530D01*
X157589Y388530D01*
X157668Y388534D01*
X157746Y388542D01*
X157824Y388553D01*
X157902Y388569D01*
X157979Y388587D01*
X158055Y388610D01*
X158129Y388636D01*
X158202Y388666D01*
X158274Y388699D01*
X158344Y388736D01*
X158412Y388776D01*
X158478Y388820D01*
X158542Y388866D01*
X158604Y388916D01*
X158663Y388968D01*
X158720Y389023D01*
X158774Y389081D01*
X158825Y389142D01*
X158873Y389204D01*
X158917Y389269D01*
X158959Y389337D01*
X158998Y389406D01*
X159033Y389477D01*
X159064Y389549D01*
X159092Y389623D01*
X159117Y389698D01*
X159137Y389774D01*
X159155Y389852D01*
X159168Y389930D01*
X159177Y390008D01*
X159183Y390087D01*
X159185Y390166D01*
X149369Y388712D02*
X149369Y399254D01*
X149369Y388712D02*
X145734Y388712D01*
X223166Y373080D02*
X223166Y371989D01*
X223164Y371910D01*
X223158Y371831D01*
X223149Y371753D01*
X223136Y371675D01*
X223118Y371597D01*
X223098Y371521D01*
X223073Y371446D01*
X223045Y371372D01*
X223014Y371300D01*
X222979Y371229D01*
X222940Y371160D01*
X222898Y371092D01*
X222854Y371027D01*
X222806Y370965D01*
X222755Y370904D01*
X222701Y370846D01*
X222644Y370791D01*
X222585Y370739D01*
X222523Y370689D01*
X222459Y370643D01*
X222393Y370599D01*
X222325Y370559D01*
X222255Y370522D01*
X222183Y370489D01*
X222110Y370459D01*
X222036Y370433D01*
X221960Y370410D01*
X221883Y370392D01*
X221805Y370376D01*
X221727Y370365D01*
X221649Y370357D01*
X221570Y370353D01*
X221490Y370353D01*
X221411Y370357D01*
X221333Y370365D01*
X221255Y370376D01*
X221177Y370392D01*
X221100Y370410D01*
X221024Y370433D01*
X220950Y370459D01*
X220877Y370489D01*
X220805Y370522D01*
X220735Y370559D01*
X220667Y370599D01*
X220601Y370643D01*
X220537Y370689D01*
X220475Y370739D01*
X220416Y370791D01*
X220359Y370846D01*
X220305Y370904D01*
X220254Y370965D01*
X220206Y371027D01*
X220162Y371092D01*
X220120Y371160D01*
X220081Y371229D01*
X220046Y371300D01*
X220015Y371372D01*
X219987Y371446D01*
X219962Y371521D01*
X219942Y371597D01*
X219924Y371675D01*
X219911Y371753D01*
X219902Y371831D01*
X219896Y371910D01*
X219894Y371989D01*
X219894Y374171D01*
X219896Y374255D01*
X219902Y374338D01*
X219911Y374421D01*
X219924Y374504D01*
X219941Y374586D01*
X219961Y374667D01*
X219986Y374748D01*
X220013Y374827D01*
X220045Y374904D01*
X220079Y374981D01*
X220117Y375055D01*
X220159Y375128D01*
X220203Y375199D01*
X220251Y375268D01*
X220302Y375334D01*
X220356Y375399D01*
X220413Y375460D01*
X220472Y375519D01*
X220534Y375576D01*
X220598Y375629D01*
X220665Y375680D01*
X220734Y375728D01*
X220805Y375772D01*
X220878Y375813D01*
X220953Y375851D01*
X221029Y375885D01*
X221107Y375916D01*
X221186Y375944D01*
X221267Y375968D01*
X221348Y375988D01*
X221712Y375988D01*
X221788Y375990D01*
X221864Y375996D01*
X221939Y376006D01*
X222014Y376020D01*
X222088Y376038D01*
X222161Y376059D01*
X222233Y376085D01*
X222303Y376114D01*
X222372Y376146D01*
X222439Y376183D01*
X222504Y376223D01*
X222567Y376266D01*
X222627Y376312D01*
X222685Y376361D01*
X222740Y376414D01*
X222793Y376469D01*
X222842Y376527D01*
X222888Y376587D01*
X222931Y376650D01*
X222971Y376715D01*
X223008Y376782D01*
X223040Y376851D01*
X223069Y376921D01*
X223095Y376993D01*
X223116Y377066D01*
X223134Y377140D01*
X223148Y377215D01*
X223158Y377290D01*
X223164Y377366D01*
X223166Y377442D01*
X223166Y379987D01*
X223164Y380066D01*
X223158Y380145D01*
X223149Y380223D01*
X223136Y380301D01*
X223118Y380379D01*
X223098Y380455D01*
X223073Y380530D01*
X223045Y380604D01*
X223014Y380676D01*
X222979Y380747D01*
X222940Y380816D01*
X222898Y380884D01*
X222854Y380949D01*
X222806Y381011D01*
X222755Y381072D01*
X222701Y381130D01*
X222644Y381185D01*
X222585Y381237D01*
X222523Y381287D01*
X222459Y381333D01*
X222393Y381377D01*
X222325Y381417D01*
X222255Y381454D01*
X222183Y381487D01*
X222110Y381517D01*
X222036Y381543D01*
X221960Y381566D01*
X221883Y381584D01*
X221805Y381600D01*
X221727Y381611D01*
X221649Y381619D01*
X221570Y381623D01*
X221490Y381623D01*
X221411Y381619D01*
X221333Y381611D01*
X221255Y381600D01*
X221177Y381584D01*
X221100Y381566D01*
X221024Y381543D01*
X220950Y381517D01*
X220877Y381487D01*
X220805Y381454D01*
X220735Y381417D01*
X220667Y381377D01*
X220601Y381333D01*
X220537Y381287D01*
X220475Y381237D01*
X220416Y381185D01*
X220359Y381130D01*
X220305Y381072D01*
X220254Y381011D01*
X220206Y380949D01*
X220162Y380884D01*
X220120Y380816D01*
X220081Y380747D01*
X220046Y380676D01*
X220015Y380604D01*
X219987Y380530D01*
X219962Y380455D01*
X219942Y380379D01*
X219924Y380301D01*
X219911Y380223D01*
X219902Y380145D01*
X219896Y380066D01*
X219894Y379987D01*
X219894Y379260D01*
X213351Y381441D02*
X213351Y370535D01*
X206807Y370535D02*
X206807Y381441D01*
X203535Y373080D01*
X200627Y381441D01*
X200627Y370535D01*
X194084Y370535D02*
X190448Y370535D01*
X194084Y370535D02*
X194084Y381441D01*
X184268Y379987D02*
X184268Y372353D01*
X184268Y379987D02*
X184266Y380066D01*
X184260Y380145D01*
X184251Y380223D01*
X184238Y380301D01*
X184220Y380379D01*
X184200Y380455D01*
X184175Y380530D01*
X184147Y380604D01*
X184116Y380676D01*
X184081Y380747D01*
X184042Y380816D01*
X184000Y380884D01*
X183956Y380949D01*
X183908Y381011D01*
X183857Y381072D01*
X183803Y381130D01*
X183746Y381185D01*
X183687Y381237D01*
X183625Y381287D01*
X183561Y381333D01*
X183495Y381377D01*
X183427Y381417D01*
X183357Y381454D01*
X183285Y381487D01*
X183212Y381517D01*
X183138Y381543D01*
X183062Y381566D01*
X182985Y381584D01*
X182907Y381600D01*
X182829Y381611D01*
X182751Y381619D01*
X182672Y381623D01*
X182592Y381623D01*
X182513Y381619D01*
X182435Y381611D01*
X182357Y381600D01*
X182279Y381584D01*
X182202Y381566D01*
X182126Y381543D01*
X182052Y381517D01*
X181979Y381487D01*
X181907Y381454D01*
X181837Y381417D01*
X181769Y381377D01*
X181703Y381333D01*
X181639Y381287D01*
X181577Y381237D01*
X181518Y381185D01*
X181461Y381130D01*
X181407Y381072D01*
X181356Y381011D01*
X181308Y380949D01*
X181264Y380884D01*
X181222Y380816D01*
X181183Y380747D01*
X181148Y380676D01*
X181117Y380604D01*
X181089Y380530D01*
X181064Y380455D01*
X181044Y380379D01*
X181026Y380301D01*
X181013Y380223D01*
X181004Y380145D01*
X180998Y380066D01*
X180996Y379987D01*
X180996Y372353D01*
X180998Y372274D01*
X181004Y372195D01*
X181013Y372117D01*
X181026Y372039D01*
X181044Y371961D01*
X181064Y371885D01*
X181089Y371810D01*
X181117Y371736D01*
X181148Y371664D01*
X181183Y371593D01*
X181222Y371524D01*
X181264Y371456D01*
X181308Y371391D01*
X181356Y371329D01*
X181407Y371268D01*
X181461Y371210D01*
X181518Y371155D01*
X181577Y371103D01*
X181639Y371053D01*
X181703Y371007D01*
X181769Y370963D01*
X181837Y370923D01*
X181907Y370886D01*
X181979Y370853D01*
X182052Y370823D01*
X182126Y370797D01*
X182202Y370774D01*
X182279Y370756D01*
X182357Y370740D01*
X182435Y370729D01*
X182513Y370721D01*
X182592Y370717D01*
X182672Y370717D01*
X182751Y370721D01*
X182829Y370729D01*
X182907Y370740D01*
X182985Y370756D01*
X183062Y370774D01*
X183138Y370797D01*
X183212Y370823D01*
X183285Y370853D01*
X183357Y370886D01*
X183427Y370923D01*
X183495Y370963D01*
X183561Y371007D01*
X183625Y371053D01*
X183687Y371103D01*
X183746Y371155D01*
X183803Y371210D01*
X183857Y371268D01*
X183908Y371329D01*
X183956Y371391D01*
X184000Y371456D01*
X184042Y371524D01*
X184081Y371593D01*
X184116Y371664D01*
X184147Y371736D01*
X184175Y371810D01*
X184200Y371885D01*
X184220Y371961D01*
X184238Y372039D01*
X184251Y372117D01*
X184260Y372195D01*
X184266Y372274D01*
X184268Y372353D01*
X170818Y379260D02*
X170818Y379624D01*
X170820Y379708D01*
X170826Y379792D01*
X170835Y379875D01*
X170849Y379958D01*
X170866Y380040D01*
X170887Y380122D01*
X170912Y380202D01*
X170941Y380281D01*
X170973Y380358D01*
X171009Y380434D01*
X171048Y380509D01*
X171090Y380581D01*
X171136Y380651D01*
X171185Y380720D01*
X171237Y380785D01*
X171292Y380849D01*
X171350Y380910D01*
X171411Y380968D01*
X171475Y381023D01*
X171540Y381075D01*
X171609Y381124D01*
X171679Y381170D01*
X171751Y381212D01*
X171826Y381251D01*
X171902Y381287D01*
X171979Y381319D01*
X172058Y381348D01*
X172138Y381373D01*
X172220Y381394D01*
X172302Y381411D01*
X172385Y381425D01*
X172468Y381434D01*
X172552Y381440D01*
X172636Y381442D01*
X172720Y381440D01*
X172804Y381434D01*
X172887Y381425D01*
X172970Y381411D01*
X173052Y381394D01*
X173134Y381373D01*
X173214Y381348D01*
X173293Y381319D01*
X173370Y381287D01*
X173446Y381251D01*
X173521Y381212D01*
X173593Y381170D01*
X173663Y381124D01*
X173732Y381075D01*
X173797Y381023D01*
X173861Y380968D01*
X173922Y380910D01*
X173980Y380849D01*
X174035Y380785D01*
X174087Y380720D01*
X174136Y380651D01*
X174182Y380581D01*
X174224Y380509D01*
X174263Y380434D01*
X174299Y380358D01*
X174331Y380281D01*
X174360Y380202D01*
X174385Y380122D01*
X174406Y380040D01*
X174423Y379958D01*
X174437Y379875D01*
X174446Y379792D01*
X174452Y379708D01*
X174454Y379624D01*
X174453Y379624D02*
X174453Y372353D01*
X174454Y372353D02*
X174452Y372269D01*
X174446Y372185D01*
X174437Y372102D01*
X174423Y372019D01*
X174406Y371937D01*
X174385Y371855D01*
X174360Y371775D01*
X174331Y371696D01*
X174299Y371619D01*
X174263Y371543D01*
X174224Y371468D01*
X174182Y371396D01*
X174136Y371326D01*
X174087Y371257D01*
X174035Y371192D01*
X173980Y371128D01*
X173922Y371067D01*
X173861Y371009D01*
X173797Y370954D01*
X173732Y370902D01*
X173663Y370853D01*
X173593Y370807D01*
X173521Y370765D01*
X173446Y370726D01*
X173370Y370690D01*
X173293Y370658D01*
X173214Y370629D01*
X173134Y370604D01*
X173052Y370583D01*
X172970Y370566D01*
X172887Y370552D01*
X172804Y370543D01*
X172720Y370537D01*
X172636Y370535D01*
X172552Y370537D01*
X172468Y370543D01*
X172385Y370552D01*
X172302Y370566D01*
X172220Y370583D01*
X172138Y370604D01*
X172058Y370629D01*
X171979Y370658D01*
X171902Y370690D01*
X171826Y370726D01*
X171751Y370765D01*
X171679Y370807D01*
X171609Y370853D01*
X171540Y370902D01*
X171475Y370954D01*
X171411Y371009D01*
X171350Y371067D01*
X171292Y371128D01*
X171237Y371192D01*
X171185Y371257D01*
X171136Y371326D01*
X171090Y371396D01*
X171048Y371468D01*
X171009Y371543D01*
X170973Y371619D01*
X170941Y371696D01*
X170912Y371775D01*
X170887Y371855D01*
X170866Y371937D01*
X170849Y372019D01*
X170835Y372102D01*
X170826Y372185D01*
X170820Y372269D01*
X170818Y372353D01*
X170818Y372717D01*
X164638Y374171D02*
X164638Y381441D01*
X164638Y374171D02*
X164638Y370535D01*
X164638Y374171D02*
X161366Y381441D01*
X163184Y377079D02*
X161366Y370535D01*
X152278Y374898D02*
X152278Y382895D01*
X151187Y382895D01*
X151111Y382893D01*
X151035Y382887D01*
X150960Y382877D01*
X150885Y382863D01*
X150811Y382845D01*
X150738Y382824D01*
X150666Y382798D01*
X150596Y382769D01*
X150527Y382737D01*
X150460Y382700D01*
X150395Y382660D01*
X150332Y382617D01*
X150272Y382571D01*
X150214Y382522D01*
X150159Y382469D01*
X150106Y382414D01*
X150057Y382356D01*
X150011Y382296D01*
X149968Y382233D01*
X149928Y382168D01*
X149891Y382101D01*
X149859Y382032D01*
X149830Y381962D01*
X149804Y381890D01*
X149783Y381817D01*
X149765Y381743D01*
X149751Y381668D01*
X149741Y381593D01*
X149735Y381517D01*
X149733Y381441D01*
X149733Y380714D01*
X149735Y380639D01*
X149740Y380564D01*
X149750Y380490D01*
X149763Y380416D01*
X149779Y380343D01*
X149799Y380271D01*
X149823Y380200D01*
X149850Y380130D01*
X149881Y380061D01*
X149915Y379995D01*
X149952Y379929D01*
X149992Y379866D01*
X150036Y379805D01*
X150082Y379746D01*
X150132Y379690D01*
X150184Y379636D01*
X150238Y379585D01*
X150295Y379536D01*
X150355Y379490D01*
X150416Y379448D01*
X150480Y379408D01*
X150545Y379372D01*
X150613Y379339D01*
X150681Y379309D01*
X150752Y379283D01*
X150823Y379260D01*
X151914Y379260D01*
X150823Y379260D02*
X149733Y374898D01*
X287703Y437092D02*
X295492Y425408D01*
X287703Y425408D02*
X295492Y437092D01*
X279843Y437092D02*
X279736Y437090D01*
X279630Y437084D01*
X279524Y437074D01*
X279418Y437061D01*
X279312Y437043D01*
X279208Y437022D01*
X279104Y436997D01*
X279001Y436968D01*
X278900Y436936D01*
X278800Y436899D01*
X278701Y436859D01*
X278603Y436816D01*
X278507Y436769D01*
X278413Y436718D01*
X278321Y436664D01*
X278231Y436607D01*
X278143Y436547D01*
X278058Y436483D01*
X277975Y436416D01*
X277894Y436346D01*
X277816Y436274D01*
X277740Y436198D01*
X277668Y436120D01*
X277598Y436039D01*
X277531Y435956D01*
X277467Y435871D01*
X277407Y435783D01*
X277350Y435693D01*
X277296Y435601D01*
X277245Y435507D01*
X277198Y435411D01*
X277155Y435313D01*
X277115Y435214D01*
X277078Y435114D01*
X277046Y435013D01*
X277017Y434910D01*
X276992Y434806D01*
X276971Y434702D01*
X276953Y434596D01*
X276940Y434490D01*
X276930Y434384D01*
X276924Y434278D01*
X276922Y434171D01*
X279843Y437092D02*
X279964Y437090D01*
X280085Y437084D01*
X280205Y437074D01*
X280326Y437061D01*
X280445Y437043D01*
X280565Y437022D01*
X280683Y436997D01*
X280800Y436968D01*
X280917Y436935D01*
X281032Y436899D01*
X281146Y436858D01*
X281259Y436815D01*
X281371Y436767D01*
X281480Y436716D01*
X281588Y436661D01*
X281695Y436603D01*
X281799Y436542D01*
X281901Y436477D01*
X282001Y436409D01*
X282099Y436338D01*
X282195Y436264D01*
X282288Y436187D01*
X282378Y436106D01*
X282466Y436023D01*
X282551Y435937D01*
X282634Y435848D01*
X282713Y435757D01*
X282790Y435663D01*
X282863Y435567D01*
X282933Y435469D01*
X283000Y435368D01*
X283064Y435265D01*
X283125Y435160D01*
X283182Y435053D01*
X283235Y434945D01*
X283285Y434835D01*
X283331Y434723D01*
X283374Y434610D01*
X283413Y434495D01*
X277896Y431899D02*
X277817Y431977D01*
X277741Y432057D01*
X277668Y432140D01*
X277598Y432226D01*
X277531Y432313D01*
X277467Y432404D01*
X277407Y432496D01*
X277349Y432590D01*
X277295Y432687D01*
X277245Y432785D01*
X277198Y432885D01*
X277154Y432986D01*
X277114Y433089D01*
X277078Y433194D01*
X277046Y433299D01*
X277017Y433406D01*
X276992Y433513D01*
X276970Y433622D01*
X276953Y433731D01*
X276939Y433840D01*
X276930Y433950D01*
X276924Y434061D01*
X276922Y434171D01*
X277895Y431899D02*
X283413Y425408D01*
X276922Y425408D01*
X39005Y225142D02*
X39005Y213458D01*
X39005Y225142D02*
X35760Y225142D01*
X35647Y225140D01*
X35534Y225134D01*
X35421Y225124D01*
X35308Y225110D01*
X35196Y225093D01*
X35085Y225071D01*
X34975Y225046D01*
X34865Y225016D01*
X34757Y224983D01*
X34650Y224946D01*
X34544Y224906D01*
X34440Y224861D01*
X34337Y224813D01*
X34236Y224762D01*
X34137Y224707D01*
X34040Y224649D01*
X33945Y224587D01*
X33852Y224522D01*
X33762Y224454D01*
X33674Y224383D01*
X33588Y224308D01*
X33505Y224231D01*
X33425Y224151D01*
X33348Y224068D01*
X33273Y223982D01*
X33202Y223894D01*
X33134Y223804D01*
X33069Y223711D01*
X33007Y223616D01*
X32949Y223519D01*
X32894Y223420D01*
X32843Y223319D01*
X32795Y223216D01*
X32750Y223112D01*
X32710Y223006D01*
X32673Y222899D01*
X32640Y222791D01*
X32610Y222681D01*
X32585Y222571D01*
X32563Y222460D01*
X32546Y222348D01*
X32532Y222235D01*
X32522Y222122D01*
X32516Y222009D01*
X32514Y221896D01*
X32516Y221783D01*
X32522Y221670D01*
X32532Y221557D01*
X32546Y221444D01*
X32563Y221332D01*
X32585Y221221D01*
X32610Y221111D01*
X32640Y221001D01*
X32673Y220893D01*
X32710Y220786D01*
X32750Y220680D01*
X32795Y220576D01*
X32843Y220473D01*
X32894Y220372D01*
X32949Y220273D01*
X33007Y220176D01*
X33069Y220081D01*
X33134Y219988D01*
X33202Y219898D01*
X33273Y219810D01*
X33348Y219724D01*
X33425Y219641D01*
X33505Y219561D01*
X33588Y219484D01*
X33674Y219409D01*
X33762Y219338D01*
X33852Y219270D01*
X33945Y219205D01*
X34040Y219143D01*
X34137Y219085D01*
X34236Y219030D01*
X34337Y218979D01*
X34440Y218931D01*
X34544Y218886D01*
X34650Y218846D01*
X34757Y218809D01*
X34865Y218776D01*
X34975Y218746D01*
X35085Y218721D01*
X35196Y218699D01*
X35308Y218682D01*
X35421Y218668D01*
X35534Y218658D01*
X35647Y218652D01*
X35760Y218650D01*
X35760Y218651D02*
X39005Y218651D01*
X35111Y218651D02*
X32514Y213458D01*
X27649Y222546D02*
X24404Y225142D01*
X24404Y213458D01*
X27649Y213458D02*
X21158Y213458D01*
M02*
