G04 EAGLE Gerber RS-274X export*
G75*
%MOMM*%
%FSLAX34Y34*%
%LPD*%
%INSolderpaste Bottom*%
%IPPOS*%
%AMOC8*
5,1,8,0,0,1.08239X$1,22.5*%
G01*
%ADD10C,0.198000*%
%ADD11C,0.203000*%
%ADD12R,1.000000X1.100000*%
%ADD13R,1.700000X1.300000*%


D10*
X891790Y302190D02*
X891790Y309210D01*
X904310Y309210D01*
X904310Y302190D01*
X891790Y302190D01*
X891790Y304071D02*
X904310Y304071D01*
X904310Y305952D02*
X891790Y305952D01*
X891790Y307833D02*
X904310Y307833D01*
X891790Y325190D02*
X891790Y332210D01*
X904310Y332210D01*
X904310Y325190D01*
X891790Y325190D01*
X891790Y327071D02*
X904310Y327071D01*
X904310Y328952D02*
X891790Y328952D01*
X891790Y330833D02*
X904310Y330833D01*
X891790Y348190D02*
X891790Y355210D01*
X904310Y355210D01*
X904310Y348190D01*
X891790Y348190D01*
X891790Y350071D02*
X904310Y350071D01*
X904310Y351952D02*
X891790Y351952D01*
X891790Y353833D02*
X904310Y353833D01*
D11*
X953315Y343435D02*
X953315Y313965D01*
X953315Y343435D02*
X965785Y343435D01*
X965785Y313965D01*
X953315Y313965D01*
X953315Y315893D02*
X965785Y315893D01*
X965785Y317821D02*
X953315Y317821D01*
X953315Y319749D02*
X965785Y319749D01*
X965785Y321677D02*
X953315Y321677D01*
X953315Y323605D02*
X965785Y323605D01*
X965785Y325533D02*
X953315Y325533D01*
X953315Y327461D02*
X965785Y327461D01*
X965785Y329389D02*
X953315Y329389D01*
X953315Y331317D02*
X965785Y331317D01*
X965785Y333245D02*
X953315Y333245D01*
X953315Y335173D02*
X965785Y335173D01*
X965785Y337101D02*
X953315Y337101D01*
X953315Y339029D02*
X965785Y339029D01*
X965785Y340957D02*
X953315Y340957D01*
X953315Y342885D02*
X965785Y342885D01*
D12*
X855200Y329800D03*
X855200Y312800D03*
X53500Y137000D03*
X70500Y137000D03*
X51500Y196000D03*
X68500Y196000D03*
D13*
X297500Y296850D03*
X297500Y322250D03*
X297500Y347650D03*
X40500Y296850D03*
X40500Y322250D03*
X40500Y347650D03*
D12*
X51500Y221000D03*
X68500Y221000D03*
M02*
